<svg width="84" height="83" viewBox="0 0 84 83" fill="none" xmlns="http://www.w3.org/2000/svg">
<path d="M40.5042 0.746826C34.452 0.746826 29.5368 5.66201 29.5368 11.7143V27.5362C28.8947 28.1127 28.3448 28.7858 27.9088 29.5363H13.0856C9.31183 29.5363 6.23099 32.6173 6.23099 36.3911V42.014C3.1094 42.6523 0.747372 45.4247 0.747277 48.7295V52.8421C0.719452 54.6977 3.51698 54.6977 3.48914 52.8421V48.7295C3.48924 46.4272 5.2998 44.6166 7.60192 44.6166C9.90415 44.6166 11.7147 46.4272 11.7147 48.7295V62.4386C11.7148 63.1958 12.3285 63.8095 13.0856 63.8096H30.9318L30.9132 74.777H4.86009C4.07852 74.777 3.48916 74.1893 3.48916 73.4061V65.1805C3.50014 64.4077 2.86966 63.7789 2.09682 63.7909C1.34067 63.8013 0.736951 64.4245 0.747301 65.1805V73.4061C0.747301 75.6601 2.49707 77.617 5.16265 77.5189L6.27119 81.9664C6.42728 82.5758 6.97816 83.0008 7.60731 82.9972H11.7147C12.3399 82.996 12.885 82.5718 13.0402 81.9664L14.1567 77.5189H29.735C29.6193 77.9604 29.5368 78.4139 29.5368 78.8899V81.6316C29.5396 82.3887 30.156 83.0001 30.9131 82.9972H39.1306C39.8877 82.9999 40.5039 82.3887 40.5069 81.6316C40.5069 80.243 40.6248 78.1433 40.3115 77.5243H43.471C43.1327 78.3322 43.2488 80.1996 43.2488 81.6343C43.2515 82.3873 43.8614 82.9969 44.6144 82.9999H52.8426C53.5956 82.9971 54.2052 82.3873 54.2082 81.6343V78.8899C54.2082 78.4137 54.128 77.9602 54.0127 77.5189H69.599L70.7049 81.9664C70.8609 82.5758 71.4118 83.0008 72.041 82.9972H76.1484C76.7736 82.996 77.3187 82.5718 77.4738 81.9664L78.5904 77.5189C81.5733 77.5951 83.0031 75.2862 83.0031 73.4061V48.7295C83.0031 45.4247 80.641 42.6523 77.5193 42.014V36.3911C77.5193 32.6173 74.4385 29.5363 70.6647 29.5363H55.8415C55.4056 28.7858 54.8556 28.1127 54.2136 27.5362V11.7143C54.2136 5.66201 49.2983 0.746826 43.2461 0.746826H40.5042ZM40.5042 3.48873H43.2461C47.8267 3.48873 51.4717 7.13354 51.4717 11.7143V25.9029C50.6123 25.5972 49.6922 25.4236 48.7298 25.4236H47.3589V21.9401C49.0376 20.4328 50.1007 18.2538 50.1007 15.8271V13.0852C50.1007 12.7215 49.9562 12.373 49.6991 12.1159L46.9572 9.37417C46.4262 8.84312 45.7637 8.89327 45.2275 9.2026C45.2275 9.2026 41.2658 11.7141 37.7623 11.7141H35.0205C34.2634 11.7142 33.6497 12.328 33.6496 13.0851V15.827C33.6495 18.255 34.7138 20.4352 36.3941 21.9426V25.4235H35.0205C34.0581 25.4235 33.138 25.597 32.2787 25.9027V11.7141C32.2787 7.13339 35.9236 3.48857 40.5042 3.48857V3.48873ZM45.7603 12.0704L47.3589 13.6529V15.8271C47.3589 18.8888 44.9369 21.3108 41.8752 21.3108C38.8135 21.3108 36.3914 18.8888 36.3914 15.8271V14.4562H37.7624C41.3297 14.4562 44.4738 12.771 45.7603 12.0704V12.0704ZM39.1333 23.5734C39.9926 23.8791 40.9127 24.0527 41.8752 24.0527C42.8376 24.0527 43.7577 23.8791 44.617 23.5734V26.5455C44.617 26.5455 44.148 28.1932 41.8752 28.1655C39.6021 28.1396 39.1333 26.5455 39.1333 26.5455V23.5734ZM35.0205 28.1655H36.8627C37.4691 29.2903 38.8538 30.9073 41.8752 30.9073C44.8962 30.9073 46.2812 29.2902 46.8876 28.1655H48.7298C51.7915 28.1655 54.2135 30.5874 54.2135 33.6518H29.5368C29.5368 30.5874 31.9588 28.1655 35.0205 28.1655V28.1655ZM13.0856 32.2782H26.9154C26.7967 32.868 26.773 33.3974 26.7949 33.8821C25.2083 34.4541 24.0504 35.9906 24.0504 37.762V51.4739C24.0504 53.7287 25.9164 55.584 28.1712 55.584C29.3584 55.5868 30.4268 55.5826 31.6295 55.584C30.6171 57.1818 30.9036 59.0173 30.8995 61.0677H14.4566V48.7295C14.4566 45.4247 12.0945 42.6523 8.97285 42.014V36.3911C8.97285 34.0888 10.7834 32.2782 13.0856 32.2782V32.2782ZM70.6647 32.2782C72.9668 32.2782 74.7775 34.0888 74.7775 36.3911V42.014C71.6558 42.6523 69.2937 45.4247 69.2937 48.7295V61.0677H52.8506C52.8506 59.112 53.0535 57.08 52.1331 55.584C53.2909 55.5835 54.4422 55.584 55.5845 55.584C57.8392 55.584 59.6946 53.7287 59.6946 51.4739V37.762C59.6946 35.9252 58.4982 34.405 56.9554 33.8821C56.9798 33.3213 56.9192 32.6904 56.8296 32.2782H70.6647ZM28.1712 36.3964H55.5844C56.3676 36.3964 56.95 36.9788 56.95 37.762V51.4739C56.95 52.2572 56.3676 52.8421 55.5844 52.8421C46.445 52.8408 37.3087 52.8421 28.1709 52.8421C27.388 52.8421 26.7949 52.2572 26.7949 51.4739V37.762C26.7949 36.9788 27.388 36.3964 28.1712 36.3964V36.3964ZM41.8725 40.5038C39.6173 40.5038 37.7624 42.3587 37.7624 44.6139C37.7624 46.8691 39.6173 48.7321 41.8725 48.7321C44.1277 48.7321 45.9906 46.8691 45.9906 44.6139C45.9906 42.3587 44.1277 40.5038 41.8725 40.5038ZM41.8725 43.2457C42.6459 43.2457 43.2488 43.8405 43.2488 44.6139C43.2488 45.3872 42.6459 45.9902 41.8725 45.9902C41.0991 45.9902 40.5069 45.3872 40.5069 44.6139C40.5069 43.8405 41.0991 43.2457 41.8725 43.2457ZM76.1484 44.6166C78.4505 44.6166 80.2612 46.4272 80.2612 48.7295V73.4061C80.2612 74.1893 79.6729 74.777 78.8929 74.777H52.8426L52.8509 63.8096H70.6647C71.4218 63.8095 72.0356 63.1958 72.0357 62.4386V48.7295C72.0357 46.4272 73.8462 44.6166 76.1484 44.6166H76.1484ZM39.1014 58.3315L36.7451 73.6849C35.6605 73.2833 34.5557 73.3626 33.6603 73.5802L33.639 58.3259C33.6418 56.7834 34.8904 55.5993 36.4292 55.595C37.9581 55.6053 39.4877 56.8903 39.1015 58.3316L39.1014 58.3315ZM41.2727 55.584C41.7638 55.5838 41.9732 55.5844 42.4642 55.584C42.0169 56.247 41.8725 57.3324 41.8725 57.3324C41.8725 57.3324 41.768 56.3217 41.2727 55.584ZM47.3669 55.584C48.9 55.5737 50.1114 56.7833 50.1114 58.3259L50.1031 73.5909C49.032 73.2479 47.8192 73.4064 47.0107 73.6763L44.6036 58.1142C44.39 57.3173 45.3594 55.5946 47.3668 55.5839L47.3669 55.584ZM2.11821 56.9577C1.43274 56.9584 0.747277 57.4142 0.747277 58.3259V59.6969C0.719452 61.5524 3.51698 61.5524 3.48914 59.6969V58.3259C3.48914 57.4117 2.80367 56.957 2.11821 56.9577ZM42.2929 61.0677H41.4601L41.8711 58.3875L42.2929 61.0677ZM41.0424 63.8096H42.7132L44.4028 74.7824H39.3555L41.0424 63.8096ZM35.0205 76.148C36.5632 76.148 37.7624 77.3472 37.7624 78.8899V80.2555H32.2787V78.8899C32.2787 77.3473 33.4778 76.148 35.0205 76.148ZM48.7352 76.148C50.2778 76.148 51.477 77.3473 51.477 78.8899V80.2555H45.9906V78.9406C46.0507 77.3369 47.1931 76.148 48.7352 76.148ZM7.9875 77.5189H11.3265L10.641 80.2555H8.6676L7.9875 77.5189ZM72.4185 77.5189H75.7628L75.0773 80.2555H73.104L72.4185 77.5189Z" fill="#057AFF"/>
</svg>
