<svg width="82" height="82" viewBox="0 0 82 82" fill="none" xmlns="http://www.w3.org/2000/svg">
<path d="M41 10.8906C35.0449 10.8906 29.2236 12.6565 24.2721 15.965C19.3207 19.2734 15.4615 23.9759 13.1826 29.4776C10.9037 34.9794 10.3074 41.0334 11.4692 46.874C12.631 52.7147 15.4986 58.0797 19.7095 62.2905C23.9203 66.5014 29.2853 69.3691 35.126 70.5308C40.9666 71.6926 47.0206 71.0963 52.5224 68.8174C58.0241 66.5385 62.7266 62.6793 66.035 57.7279C69.3435 52.7764 71.1094 46.9551 71.1094 41C71.1094 33.0145 67.9371 25.3561 62.2905 19.7095C56.6439 14.0629 48.9855 10.8906 41 10.8906ZM67.2306 32.5943C66.9472 32.6706 66.6775 32.7551 66.4223 32.8364C65.6553 33.1665 64.8112 33.2754 63.9856 33.1508C63.6479 33.0334 63.3308 32.8636 63.0459 32.6478C62.3954 32.145 61.6203 31.8288 60.8037 31.7332C60.3161 31.7059 59.8288 31.7926 59.3804 31.9863C58.932 32.18 58.535 32.4755 58.2206 32.8493C57.9067 33.2188 57.6837 33.6566 57.5696 34.1278C57.4554 34.599 57.4531 35.0903 57.563 35.5625C57.6687 35.9514 57.8265 36.3242 58.0322 36.6708C58.0654 36.7315 58.1035 36.8028 58.1411 36.8744C58.0811 36.871 58.011 36.8656 57.9309 36.8582C57.7032 36.8178 57.4802 36.7546 57.2652 36.6695C56.5645 36.3642 55.7886 36.2747 55.0368 36.4124C54.6251 36.5056 54.2404 36.6923 53.9124 36.9579C53.5844 37.2235 53.3218 37.561 53.145 37.9442C52.9405 38.4262 52.8444 38.9473 52.8635 39.4705C52.8827 39.9937 53.0166 40.5064 53.2557 40.9721C53.5551 41.5617 53.9701 42.085 54.4758 42.5109C54.9816 42.9368 55.5679 43.2565 56.1999 43.4512C56.6173 43.6031 57.0161 43.8022 57.3885 44.0445C57.2248 44.3017 57.0427 44.5466 56.8436 44.7774C56.6659 44.9939 56.4976 45.2022 56.365 45.3952C56.1092 45.7671 55.8201 46.1319 55.5148 46.5176C54.7024 47.4412 54.0476 48.4923 53.5766 49.6287C53.2515 50.6281 53.0658 51.6675 53.0249 52.7177C52.9894 53.3828 52.8998 54.044 52.7571 54.6946C52.5553 55.2762 52.2315 55.8078 51.8074 56.2539C50.979 57.1938 50.0338 58.0239 48.9947 58.7239C48.4235 59.1327 47.6503 59.525 47.2104 59.0708C46.4614 58.2175 45.9649 57.1725 45.7766 56.0528C45.6773 55.4887 45.6269 54.9171 45.6258 54.3443C45.6371 53.4132 45.5129 52.4854 45.2573 51.59C45.1405 51.2572 44.9966 50.9345 44.8268 50.6253C44.6596 50.381 44.5553 50.0992 44.5235 49.8048C44.7311 47.7146 43.9491 46.5263 43.2566 45.8976C41.5268 44.3261 38.7922 44.7005 38.1973 44.8065C37.2226 44.865 36.4306 44.4944 35.3339 43.9845L35.0592 43.8572C33.4295 43.1058 32.8314 41.7873 33.061 39.4501C33.2213 38.2596 33.7273 37.1423 34.5164 36.2367C35.3055 35.331 36.343 34.6768 37.5003 34.3551C39.6931 33.7989 41.8565 34.3535 44.4571 35.1362C45.9087 35.4217 47.3839 35.5703 48.8633 35.5801L49.0197 35.5879C49.6118 35.6608 50.2126 35.6151 50.7868 35.4533C51.361 35.2916 51.8973 35.017 52.3642 34.6457C52.8858 34.1887 53.2138 33.5501 53.2814 32.8599C53.3677 32.1949 53.3081 31.519 53.1069 30.8793C52.9056 30.2396 52.5674 29.6514 52.1159 29.1556C50.3035 27.2772 46.9326 27.3995 44.2269 27.5012C43.3063 27.5604 42.3826 27.5537 41.463 27.4809C41.4992 27.4095 41.5456 27.3254 41.6049 27.2269C41.6951 27.1643 41.889 27.0651 42.0222 26.9966C42.453 26.8071 42.8433 26.5366 43.1721 26.2C43.8546 25.273 44.2261 24.1536 44.2332 23.0025L44.2344 22.9921C44.2913 22.543 46.1982 22.1116 48.1376 22.2667C48.1701 22.2695 48.2033 22.2708 48.2358 22.2711C48.3222 22.2717 48.4079 22.2702 48.478 22.2652C48.8362 22.2561 49.1882 22.1695 49.5097 22.0113C49.8313 21.853 50.1147 21.627 50.3404 21.3486C51.2456 20.2169 50.971 18.5497 50.8064 17.5524L50.7683 17.3228C50.5758 16.6384 50.5533 15.9174 50.7026 15.2223C54.5839 16.6932 58.0847 19.0183 60.9457 22.0254C63.8067 25.0325 65.9547 28.6446 67.2306 32.5943ZM24.9462 18.6357C25.0006 18.9651 25.0438 19.2957 25.0701 19.5034C25.1026 19.7558 25.132 19.9808 25.1608 20.1521C25.3432 20.8701 25.3492 21.6216 25.1783 22.3424C24.9381 23.0359 24.3694 23.5517 23.2752 24.0673C23.08 24.1595 22.8861 24.2487 22.6934 24.3372C21.2168 24.8947 19.8915 25.7906 18.824 26.9531C17.061 29.0396 16.4548 28.9072 16.4498 28.9069C16.3999 28.8723 16.3565 28.8292 16.3215 28.7796C18.3299 24.748 21.2901 21.2663 24.9462 18.6357ZM13.6834 37.501C14.6681 37.5804 16.9365 37.8985 17.0417 39.1504C16.9311 40.5137 16.9493 41.8845 17.096 43.2444C17.3326 45.3192 18.7777 46.5576 20.0527 47.6499C21.1056 48.5527 22.0152 49.3322 22.0953 50.4051C22.0791 51.0571 21.9312 51.699 21.6605 52.2923C21.467 52.7904 21.3094 53.3016 21.1888 53.8222L21.1625 53.9451C20.9181 54.8451 20.8564 55.7849 20.9811 56.7091C21.1431 57.6074 21.0549 58.4474 20.7659 58.752C20.5825 58.8962 20.3495 58.962 20.1177 58.935C17.5946 56.018 15.7169 52.6002 14.608 48.9062C13.499 45.2122 13.1839 41.3254 13.6834 37.501ZM33.9882 67.6398C36.2822 66.7604 39.9434 66.0701 43.4249 68.4339C42.6253 68.504 41.8177 68.5469 41 68.5469C38.6334 68.5475 36.2767 68.2426 33.9882 67.6398ZM46.8107 67.9247C40.1873 61.3398 32.2058 65.4976 30.5485 66.4818C27.4051 65.1848 24.5283 63.3185 22.0628 60.9767C22.2685 60.8457 22.4578 60.6905 22.6264 60.5143C23.8282 59.2456 23.6919 57.3009 23.5029 56.2546C23.4468 55.6556 23.5034 55.0515 23.6699 54.4734L23.6963 54.3502C23.794 53.9472 23.9188 53.5513 24.0698 53.165C24.4759 52.2355 24.674 51.2284 24.6503 50.2143C24.492 48.0801 23.0193 46.8178 21.7199 45.7043C20.6708 44.8052 19.7649 44.0286 19.6423 42.9544C19.5109 41.7299 19.4977 40.4957 19.6029 39.2686C19.6064 39.2214 19.6075 39.174 19.606 39.1266C19.5328 36.7924 17.5014 35.2685 14.1275 34.9638C14.4162 33.6761 14.7978 32.4111 15.2693 31.1785C15.6093 31.3547 15.984 31.4538 16.3666 31.4688C16.4004 31.4697 16.4335 31.4704 16.4673 31.4704C18.1433 31.4704 19.6498 29.9458 20.7821 28.606C21.6142 27.7402 22.6335 27.0766 23.7619 26.666C23.9634 26.5738 24.1657 26.48 24.3688 26.3848C25.0968 26.0991 25.7587 25.6678 26.3141 25.1173C26.8695 24.5668 27.3067 23.9087 27.5988 23.1833C27.923 22.0566 27.9536 20.8657 27.6876 19.7239C27.6626 19.5781 27.6394 19.3902 27.6125 19.179C27.5404 18.4961 27.4117 17.8203 27.2279 17.1586C30.3291 15.3582 33.7543 14.1857 37.3083 13.7078C37.3164 13.8945 37.3158 14.0888 37.3151 14.1813L37.3146 14.3503C37.3202 15.1426 37.302 15.6797 37.0111 15.919C36.673 16.1512 36.3021 16.3315 35.9107 16.4539C35.6523 16.5521 35.3945 16.6509 35.148 16.7639C33.9079 17.263 32.7692 17.9841 31.7879 18.8918C30.725 19.977 30.8176 20.9113 31.0822 21.5038C31.2088 21.7866 31.4334 22.0139 31.7147 22.1438C31.9959 22.2737 32.3147 22.2974 32.612 22.2104C32.9093 22.1234 33.1651 21.9316 33.3319 21.6706C33.4988 21.4096 33.5654 21.097 33.5196 20.7906C33.5446 20.7618 33.5778 20.7268 33.6197 20.6839C34.387 20.0084 35.2651 19.4704 36.2154 19.0936C36.4105 19.0041 36.6158 18.9272 36.8209 18.8493C37.4771 18.6362 38.0926 18.3138 38.6415 17.8959C39.8939 16.8658 39.8839 15.3416 39.8771 14.334L39.8776 14.2017C39.8789 13.9977 39.8796 13.7478 39.862 13.4819C40.2399 13.4666 40.6184 13.4531 41 13.4531C43.4512 13.4534 45.8912 13.7819 48.2552 14.4297C47.9878 15.5205 47.9831 16.6593 48.2414 17.7523L48.2783 17.9704C48.4298 18.5359 48.4573 19.1274 48.3591 19.7045C48.3478 19.7055 48.3735 19.7061 48.2853 19.708C47.1116 19.6176 42.1017 19.4302 41.6919 22.6706L41.6951 22.6709C41.685 22.7325 41.6782 22.7972 41.6738 22.8651C41.6992 23.4301 41.5613 23.9905 41.2765 24.4792C41.1409 24.5673 40.9996 24.6465 40.8536 24.7163C40.3037 24.944 39.827 25.3184 39.4754 25.7986C39.1951 26.2456 38.3424 27.6057 39.0481 28.8278C39.8564 30.2257 41.8258 30.1541 44.3207 30.0618C46.5179 29.9811 49.2543 29.8804 50.2722 30.9352C50.4712 31.1655 50.6157 31.4379 50.6947 31.7319C50.7736 32.026 50.7851 32.334 50.7282 32.6331C50.6626 32.8267 50.2021 33.0832 49.1517 33.0284L48.9897 33.0206C47.7183 33.014 46.4498 32.901 45.1973 32.6828C42.8487 31.9765 39.9264 31.0966 36.8716 31.8708C35.2033 32.3216 33.7071 33.2594 32.5742 34.5644C31.4413 35.8694 30.723 37.4825 30.5111 39.1976C30.1757 42.6162 31.345 44.9667 33.9857 46.1841L34.2535 46.308C35.5336 47.0354 36.9888 47.3981 38.4606 47.3565C38.51 47.3528 38.5591 47.346 38.6077 47.3362C39.0281 47.2533 40.7548 47.0875 41.5343 47.7945C41.6732 47.9208 42.0973 48.3059 41.9734 49.5499C41.9324 50.3432 42.1343 51.13 42.5522 51.8056C42.6569 51.9934 42.7474 52.1888 42.823 52.3902C42.9954 53.0562 43.0767 53.7425 43.0645 54.4303C43.0685 55.1561 43.1378 55.88 43.2716 56.5933C43.5575 58.1842 44.286 59.6622 45.3736 60.8578C45.6678 61.1711 46.0234 61.4205 46.4182 61.5903C46.813 61.7601 47.2386 61.8467 47.6684 61.8447C48.694 61.8009 49.6803 61.4375 50.4893 60.8056C51.7151 59.9751 52.827 58.988 53.7969 57.8693C54.4608 57.1385 54.954 56.2694 55.2408 55.3246C55.4208 54.5367 55.5338 53.7349 55.5786 52.9279C55.6069 52.107 55.743 51.2934 55.9834 50.508C56.3684 49.6326 56.8881 48.8228 57.5237 48.1082C57.842 47.7063 58.1711 47.2905 58.4764 46.8472C58.5722 46.7075 58.6966 46.5588 58.8249 46.4025C59.3779 45.7286 60.1349 44.8056 59.9848 43.6607C59.933 43.3191 59.8096 42.9924 59.6226 42.7019C59.4357 42.4114 59.1894 42.1637 58.9 41.975C58.362 41.6066 57.7809 41.3057 57.1695 41.0791C56.3631 40.7498 55.9189 40.5683 55.548 39.8267C55.4821 39.7047 55.4411 39.5707 55.4276 39.4327C55.414 39.2946 55.4282 39.1553 55.4691 39.0228C55.4891 38.9793 55.5104 38.9346 55.6424 38.9023C55.9127 38.9172 56.1781 38.981 56.4257 39.0906C56.8317 39.2478 57.2555 39.3548 57.6875 39.4091C58.2256 39.4597 59.4868 39.5795 60.3045 38.6427C61.3573 37.4325 60.6341 36.0949 60.2869 35.4521C60.2001 35.3034 60.1244 35.1486 60.0605 34.9888C60.0405 34.9034 60.0411 34.8145 60.0622 34.7293C60.0834 34.6442 60.1243 34.5652 60.1819 34.499C60.2387 34.4268 60.3128 34.37 60.3973 34.3338C60.4817 34.2976 60.574 34.2832 60.6655 34.2919C61.0202 34.391 61.3514 34.5602 61.6395 34.7896C62.182 35.191 62.7961 35.4853 63.4488 35.6567C64.7097 35.8859 66.0096 35.7547 67.1993 35.2782C67.4433 35.2006 67.6723 35.1302 67.8969 35.0692C68.6807 38.6117 68.7564 42.2743 68.1197 45.8461C67.483 49.418 66.1463 52.8288 64.1866 55.8822C62.227 58.9356 59.683 61.5715 56.701 63.6382C53.7189 65.7049 50.3577 67.1617 46.8107 67.9247Z" fill="#057AFF"/>
<path d="M61.5244 48.297C61.2986 48.5064 61.1559 48.7901 61.1222 49.0962C61.0886 49.4023 61.1663 49.7102 61.3411 49.9637C61.2595 50.586 61.0523 51.1853 60.7322 51.7252C60.412 52.2651 59.9855 52.7344 59.4786 53.1045C59.1457 53.1186 58.8314 53.2619 58.6024 53.5039C58.3733 53.7459 58.2476 54.0676 58.2518 54.4008C58.256 54.734 58.3899 55.0524 58.625 55.2885C58.8601 55.5246 59.178 55.6599 59.5112 55.6655L59.5462 55.6658C60.9413 55.6658 62.2457 54.2479 63.0065 52.9113C63.841 51.4417 64.3659 49.4754 63.3349 48.3646C63.2205 48.2412 63.0829 48.1415 62.93 48.0713C62.7771 48.0011 62.6118 47.9618 62.4437 47.9555C62.2755 47.9492 62.1078 47.9761 61.95 48.0347C61.7923 48.0933 61.6476 48.1825 61.5244 48.297Z" fill="#057AFF"/>
<path d="M5.6618 34.8602C6.93886 27.5828 10.4269 20.8756 15.6514 15.6511C20.8758 10.4266 27.583 6.93849 34.8603 5.66136C34.6841 5.07152 34.5943 4.45925 34.5938 3.84365C34.5952 3.59438 34.6108 3.34539 34.6407 3.0979C26.7605 4.4339 19.491 8.18781 13.8394 13.8395C8.18778 19.4911 4.43394 26.7607 3.09802 34.6409C3.95855 34.5341 4.83191 34.6088 5.6618 34.8602Z" fill="#057AFF"/>
<path d="M76.3382 34.8602C77.1681 34.6088 78.0415 34.5341 78.902 34.6409C77.5661 26.7607 73.8123 19.4911 68.1607 13.8395C62.5091 8.18781 55.2395 4.4339 47.3594 3.0979C47.3892 3.34538 47.4049 3.59438 47.4063 3.84365C47.4057 4.45925 47.316 5.07152 47.1398 5.66136C54.4171 6.93849 61.1242 10.4266 66.3487 15.6511C71.5731 20.8756 75.0612 27.5828 76.3382 34.8602Z" fill="#057AFF"/>
<path d="M76.3382 47.1396C75.0612 54.417 71.5731 61.1242 66.3487 66.3487C61.1242 71.5732 54.4171 75.0613 47.1398 76.3384C47.316 76.9283 47.4057 77.5406 47.4063 78.1561C47.4049 78.4054 47.3892 78.6544 47.3594 78.9019C55.2395 77.5659 62.5091 73.812 68.1607 68.1603C73.8123 62.5087 77.5661 55.2391 78.902 47.3589C78.0415 47.4657 77.1681 47.391 76.3382 47.1396Z" fill="#057AFF"/>
<path d="M5.6618 47.1396C4.83191 47.391 3.95855 47.4657 3.09802 47.3589C4.43394 55.2391 8.18778 62.5087 13.8394 68.1603C19.491 73.812 26.7605 77.5659 34.6407 78.9019C34.6108 78.6544 34.5952 78.4054 34.5938 78.1561C34.5943 77.5406 34.6841 76.9283 34.8603 76.3384C27.583 75.0613 20.8758 71.5732 15.6514 66.3487C10.4269 61.1242 6.93886 54.417 5.6618 47.1396Z" fill="#057AFF"/>
<path d="M41 7.6875C41.7602 7.6875 42.5034 7.46207 43.1355 7.03971C43.7676 6.61736 44.2602 6.01704 44.5512 5.31469C44.8421 4.61234 44.9182 3.83949 44.7699 3.09387C44.6216 2.34826 44.2555 1.66337 43.7179 1.12581C43.1804 0.588252 42.4955 0.22217 41.7499 0.0738583C41.0043 -0.0744536 40.2314 0.00166544 39.5291 0.29259C38.8267 0.583514 38.2264 1.07618 37.804 1.70828C37.3817 2.34038 37.1562 3.08353 37.1562 3.84375C37.1574 4.86284 37.5627 5.83986 38.2833 6.56046C39.0039 7.28107 39.9809 7.68639 41 7.6875ZM41 2.5625C41.2534 2.5625 41.5011 2.63765 41.7118 2.77843C41.9225 2.91922 42.0867 3.11932 42.1837 3.35344C42.2807 3.58756 42.3061 3.84517 42.2566 4.09371C42.2072 4.34225 42.0852 4.57055 41.906 4.74973C41.7268 4.92892 41.4985 5.05095 41.25 5.10038C41.0014 5.14982 40.7438 5.12445 40.5097 5.02747C40.2756 4.9305 40.0755 4.76628 39.9347 4.55558C39.7939 4.34488 39.7187 4.09716 39.7187 3.84375C39.7191 3.50407 39.8543 3.1784 40.0945 2.93821C40.3347 2.69801 40.6603 2.5629 41 2.5625Z" fill="#057AFF"/>
<path d="M41 74.3125C40.2398 74.3125 39.4966 74.5379 38.8645 74.9603C38.2324 75.3826 37.7398 75.983 37.4488 76.6853C37.1579 77.3877 37.0818 78.1605 37.2301 78.9061C37.3784 79.6517 37.7445 80.3366 38.2821 80.8742C38.8196 81.4117 39.5045 81.7778 40.2501 81.9261C40.9957 82.0745 41.7686 81.9983 42.4709 81.7074C43.1733 81.4165 43.7736 80.9238 44.196 80.2917C44.6183 79.6596 44.8438 78.9165 44.8438 78.1562C44.8426 77.1372 44.4373 76.1601 43.7167 75.4395C42.9961 74.7189 42.0191 74.3136 41 74.3125ZM41 79.4375C40.7466 79.4375 40.4989 79.3624 40.2882 79.2216C40.0775 79.0808 39.9133 78.8807 39.8163 78.6466C39.7193 78.4124 39.6939 78.1548 39.7434 77.9063C39.7928 77.6578 39.9148 77.4295 40.094 77.2503C40.2732 77.0711 40.5015 76.9491 40.75 76.8996C40.9986 76.8502 41.2562 76.8756 41.4903 76.9725C41.7244 77.0695 41.9245 77.2337 42.0653 77.4444C42.2061 77.6551 42.2813 77.9028 42.2813 78.1562C42.2809 78.4959 42.1457 78.8216 41.9056 79.0618C41.6654 79.302 41.3397 79.4371 41 79.4375Z" fill="#057AFF"/>
<path d="M78.1563 37.1562C77.396 37.1562 76.6529 37.3817 76.0208 37.804C75.3887 38.2264 74.896 38.8267 74.6051 39.5291C74.3142 40.2314 74.238 41.0043 74.3864 41.7499C74.5347 42.4955 74.9008 43.1804 75.4383 43.7179C75.9759 44.2555 76.6608 44.6216 77.4064 44.7699C78.152 44.9182 78.9248 44.8421 79.6272 44.5512C80.3295 44.2602 80.9299 43.7676 81.3522 43.1355C81.7746 42.5034 82 41.7602 82 41C81.9989 39.9809 81.5936 39.0039 80.873 38.2833C80.1524 37.5627 79.1753 37.1574 78.1563 37.1562ZM78.1563 42.2812C77.9028 42.2812 77.6551 42.2061 77.4444 42.0653C77.2337 41.9245 77.0695 41.7244 76.9725 41.4903C76.8756 41.2562 76.8502 40.9986 76.8996 40.75C76.9491 40.5015 77.0711 40.2732 77.2503 40.094C77.4295 39.9148 77.6578 39.7928 77.9063 39.7434C78.1548 39.6939 78.4124 39.7193 78.6466 39.8163C78.8807 39.9133 79.0808 40.0775 79.2216 40.2882C79.3624 40.4989 79.4375 40.7466 79.4375 41C79.4371 41.3397 79.302 41.6653 79.0618 41.9055C78.8216 42.1457 78.4959 42.2809 78.1563 42.2812Z" fill="#057AFF"/>
<path d="M7.6875 41C7.6875 40.2398 7.46207 39.4966 7.03971 38.8645C6.61736 38.2324 6.01704 37.7398 5.31469 37.4488C4.61234 37.1579 3.83949 37.0818 3.09387 37.2301C2.34826 37.3784 1.66337 37.7445 1.12581 38.2821C0.588252 38.8196 0.22217 39.5045 0.0738583 40.2501C-0.0744536 40.9957 0.00166544 41.7686 0.29259 42.4709C0.583514 43.1733 1.07618 43.7736 1.70828 44.196C2.34038 44.6183 3.08353 44.8438 3.84375 44.8438C4.86284 44.8426 5.83986 44.4373 6.56046 43.7167C7.28107 42.9961 7.68639 42.0191 7.6875 41ZM2.5625 41C2.5625 40.7466 2.63765 40.4989 2.77843 40.2882C2.91922 40.0775 3.11932 39.9133 3.35344 39.8163C3.58756 39.7193 3.84517 39.6939 4.09371 39.7434C4.34225 39.7928 4.57055 39.9148 4.74973 40.094C4.92892 40.2732 5.05095 40.5015 5.10038 40.75C5.14982 40.9986 5.12445 41.2562 5.02747 41.4903C4.9305 41.7244 4.76628 41.9245 4.55558 42.0653C4.34488 42.2061 4.09716 42.2813 3.84375 42.2813C3.50406 42.2809 3.1784 42.1457 2.93821 41.9056C2.69801 41.6654 2.5629 41.3397 2.5625 41Z" fill="#057AFF"/>
</svg>
