<svg width="82" height="68" viewBox="0 0 82 68" fill="none" xmlns="http://www.w3.org/2000/svg">
<path d="M42.7826 8.91304C42.7826 9.98261 42.0696 10.6957 41 10.6957C39.9304 10.6957 39.2174 9.98261 39.2174 8.91304C39.2174 7.84348 39.9304 7.13043 41 7.13043C42.0696 7.13043 42.7826 7.84348 42.7826 8.91304ZM57.4 50.2696C56.687 50.9826 56.687 52.0522 57.4 52.7652C58.113 53.4783 59.1826 53.4783 59.8956 52.7652C60.6087 52.0522 60.6087 50.9826 59.8956 50.2696C59.1826 49.5565 58.113 49.5565 57.4 50.2696ZM24.6 17.4696C25.313 16.7565 25.313 15.687 24.6 14.9739C23.887 14.2609 22.8174 14.2609 22.1043 14.9739C21.3913 15.687 21.3913 16.7565 22.1043 17.4696C22.8174 18.1826 23.887 18.1826 24.6 17.4696ZM22.1043 52.7652C22.8174 53.4783 23.887 53.4783 24.6 52.7652C25.313 52.0522 25.313 50.9826 24.6 50.2696C23.887 49.5565 22.8174 49.5565 22.1043 50.2696C21.3913 50.9826 21.3913 52.0522 22.1043 52.7652ZM41 60.6087C42.0696 60.6087 42.7826 59.8956 42.7826 58.8261C42.7826 57.7565 42.0696 57.0435 41 57.0435C39.9304 57.0435 39.2174 57.7565 39.2174 58.8261C39.2174 59.8956 39.9304 60.6087 41 60.6087ZM71.8391 40.4652C72.5522 41.1783 73.6217 41.1783 74.3348 40.4652L81.4652 33.3348C82.1783 32.6217 82.1783 31.5522 81.4652 30.8391C80.7522 30.1261 79.6826 30.1261 78.9696 30.8391L74.8696 34.9391C74.8696 34.5826 74.8696 34.2261 74.8696 33.8696C74.8696 15.1522 59.7174 0 41 0C27.0957 0 14.7957 8.37826 9.62609 21.213C9.26957 22.1043 9.62609 23.1739 10.6957 23.5304C11.587 23.887 12.6565 23.5304 13.013 22.4609C17.6478 11.0522 28.7 3.56522 41 3.56522C57.7565 3.56522 71.3043 17.113 71.3043 33.8696C71.3043 34.2261 71.3043 34.5826 71.3043 34.9391L67.2043 30.8391C66.4913 30.1261 65.4217 30.1261 64.7087 30.8391C63.9956 31.5522 63.9956 32.6217 64.7087 33.3348L71.8391 40.4652ZM10.1609 27.2739C9.44783 26.5609 8.37826 26.5609 7.66522 27.2739L0.534783 34.4043C-0.178261 35.1174 -0.178261 36.187 0.534783 36.9C1.24783 37.613 2.31739 37.613 3.03043 36.9L7.13043 32.8C7.13043 33.1565 7.13043 33.513 7.13043 33.8696C7.13043 52.587 22.2826 67.7391 41 67.7391C54.9043 67.7391 67.2043 59.3609 72.3739 46.5261C72.7304 45.6348 72.3739 44.5652 71.3043 44.2087C70.413 43.8522 69.3435 44.2087 68.987 45.2783C64.3522 56.687 53.3 64.1739 41 64.1739C24.2435 64.1739 10.6957 50.6261 10.6957 33.8696C10.6957 33.513 10.6957 33.1565 10.6957 32.8L14.7957 36.9C15.5087 37.613 16.5783 37.613 17.2913 36.9C18.0043 36.187 18.0043 35.1174 17.2913 34.4043L10.1609 27.2739ZM40.287 35.4739C41 35.8304 41.713 35.6522 42.2478 35.1174L59.8956 17.4696C60.6087 16.7565 60.6087 15.687 59.8956 14.9739C59.1826 14.2609 58.113 14.2609 57.4 14.9739L42.7826 29.5913V16.0435C42.7826 14.9739 42.0696 14.2609 41 14.2609C39.9304 14.2609 39.2174 14.9739 39.2174 16.0435V33.8696C39.2174 34.5826 39.5739 35.2957 40.287 35.4739Z" fill="#057AFF"/>
</svg>
