<svg width="76" height="82" viewBox="0 0 76 82" fill="none" xmlns="http://www.w3.org/2000/svg">
<path d="M49.1996 65.6001H46.4663V68.3334H49.1996V65.6001Z" fill="#057AFF"/>
<path d="M30.0663 65.6001H27.333V68.3334H30.0663V65.6001Z" fill="#057AFF"/>
<path d="M36.8998 62.8668H39.6331C39.9955 62.8668 40.3432 63.0108 40.5995 63.2671C40.8558 63.5234 40.9997 63.871 40.9997 64.2335H43.7331C43.7331 63.1461 43.3011 62.1032 42.5322 61.3344C41.7633 60.5655 40.7205 60.1335 39.6331 60.1335V58.7668H36.8998V60.1335C35.8124 60.1335 34.7696 60.5655 34.0007 61.3344C33.2318 62.1032 32.7998 63.1461 32.7998 64.2335C32.7998 65.3208 33.2318 66.3637 34.0007 67.1326C34.7696 67.9015 35.8124 68.3334 36.8998 68.3334H39.6331C39.9955 68.3334 40.3432 68.4774 40.5995 68.7337C40.8558 68.99 40.9997 69.3376 40.9997 69.7001C40.9997 70.0626 40.8558 70.4102 40.5995 70.6665C40.3432 70.9228 39.9955 71.0667 39.6331 71.0667H36.8998C36.5373 71.0667 36.1897 70.9228 35.9334 70.6665C35.6771 70.4102 35.5331 70.0626 35.5331 69.7001H32.7998C32.7998 70.7875 33.2318 71.8303 34.0007 72.5992C34.7696 73.3681 35.8124 73.8001 36.8998 73.8001V75.1667H39.6331V73.8001C40.7205 73.8001 41.7633 73.3681 42.5322 72.5992C43.3011 71.8303 43.7331 70.7875 43.7331 69.7001C43.7331 68.6127 43.3011 67.5699 42.5322 66.801C41.7633 66.0321 40.7205 65.6001 39.6331 65.6001H36.8998C36.5373 65.6001 36.1897 65.4561 35.9334 65.1998C35.6771 64.9435 35.5331 64.5959 35.5331 64.2335C35.5331 63.871 35.6771 63.5234 35.9334 63.2671C36.1897 63.0108 36.5373 62.8668 36.8998 62.8668Z" fill="#057AFF"/>
<path d="M66.9662 48.6864V46.4669H65.3522L68.2467 38.7467C68.3243 38.5399 68.3505 38.3173 68.3232 38.0981C68.2959 37.8789 68.2159 37.6696 68.09 37.4881C67.9641 37.3066 67.7962 37.1584 67.6004 37.056C67.4047 36.9536 67.1871 36.9002 66.9662 36.9003C66.4724 36.8647 65.9986 36.6904 65.5995 36.3974C64.7879 35.858 63.8404 35.5587 62.8662 35.5337C62.2493 35.5916 61.6531 35.7861 61.1208 36.1031C60.5884 36.4201 60.1333 36.8516 59.7885 37.3664C59.4496 37.7477 58.9999 38.267 58.7663 38.267C58.5326 38.267 58.0829 37.7477 57.744 37.3664C57.3992 36.8516 56.9441 36.4201 56.4117 36.1031C55.8794 35.7861 55.2831 35.5916 54.6663 35.5337C53.6921 35.5587 52.7446 35.858 51.933 36.3974C51.5339 36.6904 51.0601 36.8647 50.5663 36.9003C50.3454 36.9002 50.1278 36.9536 49.9321 37.056C49.7363 37.1584 49.5683 37.3066 49.4425 37.4881C49.3166 37.6696 49.2366 37.8789 49.2093 38.0981C49.182 38.3173 49.2082 38.5399 49.2858 38.7467L52.1803 46.4669H50.5663V48.6768C49.1827 49.477 47.9238 50.4757 46.8299 51.6411C46.7096 51.5659 46.5893 51.4908 46.4663 51.4197V49.2002H44.8523L47.7469 41.48C47.8244 41.2732 47.8507 41.0506 47.8234 40.8315C47.7961 40.6123 47.7161 40.403 47.5902 40.2214C47.4643 40.0399 47.2963 39.8917 47.1006 39.7893C46.9049 39.6869 46.6872 39.6335 46.4663 39.6337C45.9725 39.598 45.4988 39.4237 45.0997 39.1307C44.288 38.5914 43.3406 38.292 42.3664 38.267C41.8335 38.2981 41.3135 38.4435 40.8419 38.6935C40.3702 38.9435 39.9579 39.2921 39.6331 39.7157V31.8437L43.1864 32.8004C45.6371 33.457 48.2484 33.1131 50.4456 31.8444C52.6428 30.5757 54.2461 28.4862 54.9027 26.0354L56.3172 20.756C56.3637 20.5827 56.3756 20.4018 56.3522 20.2239C56.3288 20.0459 56.2706 19.8743 56.1809 19.7188C56.0912 19.5634 55.9717 19.4271 55.8293 19.3178C55.6869 19.2085 55.5244 19.1284 55.351 19.0819L50.0716 17.6674C48.1359 17.1532 46.0877 17.259 44.2152 17.9697C42.3427 18.6804 40.7402 19.9603 39.6331 21.6293V18.5516C41.2936 17.502 45.0997 14.5542 45.0997 9.56723C45.0997 3.32844 39.1315 0.273968 38.8773 0.144136C38.6876 0.0493465 38.4785 0 38.2664 0C38.0544 0 37.8452 0.0493465 37.6555 0.144136C37.4013 0.273968 31.4331 3.32844 31.4331 9.56723C31.4331 14.5542 35.2393 17.502 36.8998 18.5516V21.6293C35.7923 19.9589 34.1887 18.6779 32.3148 17.9669C30.4409 17.2559 28.3912 17.1507 26.4544 17.666L21.175 19.0805C21.0016 19.127 20.8391 19.2071 20.6967 19.3164C20.5543 19.4257 20.4348 19.562 20.3451 19.7175C20.2554 19.8729 20.1972 20.0445 20.1738 20.2225C20.1504 20.4005 20.1623 20.5813 20.2088 20.7547L21.6233 26.0341C21.9456 27.25 22.5051 28.3901 23.2696 29.389C24.0341 30.388 24.9886 31.2259 26.078 31.8547C27.1675 32.4835 28.3705 32.8908 29.6178 33.0531C30.8652 33.2154 32.1324 33.1295 33.3464 32.8004L36.8998 31.8437V39.7157C36.5749 39.2921 36.1626 38.9435 35.6909 38.6935C35.2193 38.4435 34.6993 38.2981 34.1664 38.267C33.1922 38.292 32.2448 38.5914 31.4331 39.1307C31.034 39.4237 30.5603 39.598 30.0665 39.6337C29.8456 39.6335 29.628 39.6869 29.4322 39.7893C29.2365 39.8917 29.0685 40.0399 28.9426 40.2214C28.8167 40.403 28.7367 40.6123 28.7094 40.8315C28.6821 41.0506 28.7084 41.2732 28.7859 41.48L31.6805 49.2002H30.0665V51.4197C29.9435 51.4908 29.8232 51.5659 29.7029 51.6411C28.609 50.4757 27.3501 49.477 25.9665 48.6768V46.4669H24.3525L27.2471 38.7467C27.3246 38.5399 27.3508 38.3173 27.3235 38.0981C27.2963 37.8789 27.2162 37.6696 27.0904 37.4881C26.9645 37.3066 26.7965 37.1584 26.6007 37.056C26.405 36.9536 26.1874 36.9002 25.9665 36.9003C25.4727 36.8647 24.999 36.6904 24.5998 36.3974C23.7882 35.858 22.8408 35.5587 21.8665 35.5337C21.2497 35.5916 20.6534 35.7861 20.1211 36.1031C19.5887 36.4201 19.1336 36.8516 18.7888 37.3664C18.4499 37.7477 18.0003 38.267 17.7666 38.267C17.5329 38.267 17.0832 37.7477 16.7443 37.3664C16.3995 36.8516 15.9444 36.4201 15.4121 36.1031C14.8797 35.7861 14.2835 35.5916 13.6666 35.5337C12.6924 35.5587 11.745 35.858 10.9333 36.3974C10.5342 36.6904 10.0605 36.8647 9.56664 36.9003C9.34575 36.9002 9.12813 36.9536 8.9324 37.056C8.73667 37.1584 8.56867 37.3066 8.44279 37.4881C8.3169 37.6696 8.23689 37.8789 8.2096 38.0981C8.18231 38.3173 8.20855 38.5399 8.28608 38.7467L11.1807 46.4669H9.56664V48.6864C7.07681 50.1239 5.00862 52.1907 3.56943 54.6795C2.13024 57.1684 1.37061 59.9918 1.3667 62.8668V69.7001C1.36959 72.2364 2.37843 74.668 4.17189 76.4615C5.96534 78.255 8.39696 79.2638 10.9333 79.2667H24.5998C24.6477 79.2667 24.6942 79.2598 24.7365 79.2585C26.5215 81.0172 28.9273 82.0021 31.4331 82H45.0997C47.6055 82.0021 50.0114 81.0172 51.7963 79.2585C51.8441 79.2585 51.8906 79.2667 51.933 79.2667H65.5995C68.1359 79.2638 70.5675 78.255 72.3609 76.4615C74.1544 74.668 75.1632 72.2364 75.1661 69.7001V62.8668C75.1622 59.9918 74.4026 57.1684 72.9634 54.6795C71.5242 52.1907 69.456 50.1239 66.9662 48.6864ZM40.9997 25.1471C41.2319 24.2802 41.6326 23.4676 42.1788 22.7555C42.7251 22.0435 43.4063 21.4461 44.1835 20.9973C44.9607 20.5486 45.8186 20.2573 46.7084 20.1402C47.5982 20.023 48.5023 20.0823 49.3691 20.3146L53.3324 21.3765L52.2719 25.3398C51.8027 27.0903 50.6573 28.5827 49.0878 29.4887C47.5182 30.3947 45.653 30.6401 43.9025 30.1709L39.9392 29.1104L40.9997 25.1471ZM32.6303 30.1682C30.8798 30.6374 29.0146 30.392 27.4451 29.486C25.8755 28.58 24.7301 27.0876 24.2609 25.3371L23.2004 21.3738L27.1637 20.3119C28.9147 19.8451 30.7793 20.0921 32.3484 20.9986C33.9175 21.9051 35.0628 23.3971 35.5331 25.1471L36.5936 29.1104L32.6303 30.1682ZM52.3894 39.2483C52.7015 39.106 53.0054 38.9463 53.2996 38.7699C53.6987 38.477 54.1725 38.3026 54.6663 38.267C54.9 38.267 55.3496 38.7863 55.6885 39.1676C56.0334 39.6824 56.4884 40.1139 57.0208 40.4309C57.5531 40.7479 58.1494 40.9424 58.7663 41.0003C59.3831 40.9424 59.9794 40.7479 60.5117 40.4309C61.044 40.1139 61.4991 39.6824 61.844 39.1676C62.1829 38.7863 62.6325 38.267 62.8662 38.267C63.36 38.3026 63.8338 38.477 64.2329 38.7699C64.525 38.9437 64.8266 39.1011 65.1362 39.2414L62.433 46.4669H55.0995L52.3894 39.2483ZM34.1664 9.56723C34.1664 6.04126 36.9913 3.79174 38.2664 2.95671C39.5442 3.79311 42.3664 6.04262 42.3664 9.56723C42.3664 13.0918 39.5415 15.3427 38.2664 16.1777C36.9886 15.3414 34.1664 13.0918 34.1664 9.56723ZM31.891 41.9747C32.2024 41.8346 32.5059 41.6772 32.7998 41.5032C33.1989 41.2103 33.6726 41.0359 34.1664 41.0003C34.4001 41.0003 34.8498 41.5196 35.1887 41.9009C35.5335 42.4157 35.9886 42.8472 36.521 43.1642C37.0533 43.4812 37.6495 43.6757 38.2664 43.7336C38.8833 43.6757 39.4795 43.4812 40.0119 43.1642C40.5442 42.8472 40.9993 42.4157 41.3441 41.9009C41.683 41.5196 42.1327 41.0003 42.3664 41.0003C42.8602 41.0359 43.3339 41.2103 43.733 41.5032C44.0252 41.677 44.3268 41.8344 44.6364 41.9747L41.9331 49.2002H34.5997L31.891 41.9747ZM11.3911 39.2414C11.7026 39.1013 12.006 38.9439 12.2999 38.7699C12.6991 38.477 13.1728 38.3026 13.6666 38.267C13.9003 38.267 14.3499 38.7863 14.6889 39.1676C15.0337 39.6824 15.4888 40.1139 16.0211 40.4309C16.5535 40.7479 17.1497 40.9424 17.7666 41.0003C18.3834 40.9424 18.9797 40.7479 19.512 40.4309C20.0444 40.1139 20.4995 39.6824 20.8443 39.1676C21.1832 38.7863 21.6328 38.267 21.8665 38.267C22.3604 38.3026 22.8341 38.477 23.2332 38.7699C23.5253 38.9437 23.8269 39.1011 24.1366 39.2414L21.4333 46.4669H14.0998L11.3911 39.2414ZM4.10001 69.7001V62.8668C4.10335 60.1562 4.91182 57.5076 6.42282 55.2571C7.93383 53.0067 10.0793 51.2558 12.5869 50.2266C12.4014 50.7768 12.3045 51.353 12.2999 51.9336V53.3002H15.0333V51.9336C15.0333 51.2086 15.3212 50.5134 15.8338 50.0008C16.3464 49.4882 17.0417 49.2002 17.7666 49.2002C18.4915 49.2002 19.1867 49.4882 19.6993 50.0008C20.2119 50.5134 20.4999 51.2086 20.4999 51.9336V53.3002H23.2332V51.9336C23.2286 51.3559 23.1327 50.7825 22.9489 50.2348C24.6526 50.9284 26.1983 51.9595 27.4931 53.266C25.7278 54.8001 24.3121 56.6949 23.3415 58.8226C22.3709 60.9503 21.8679 63.2615 21.8665 65.6001V72.4334C21.8678 73.8529 22.1877 75.254 22.8027 76.5334H10.9333C9.12166 76.5312 7.38485 75.8106 6.10383 74.5295C4.82281 73.2485 4.10218 71.5117 4.10001 69.7001ZM45.0997 79.2667H31.4331C29.6215 79.2645 27.8847 78.5439 26.6037 77.2629C25.3226 75.9818 24.602 74.245 24.5998 72.4334V65.6001C24.6032 62.8895 25.4117 60.2409 26.9227 57.9904C28.4337 55.74 30.5791 53.9891 33.0868 52.9599C32.9013 53.5101 32.8044 54.0863 32.7998 54.6669V56.0335H35.5331V54.6669C35.5331 53.942 35.8211 53.2467 36.3337 52.7341C36.8463 52.2215 37.5415 51.9336 38.2664 51.9336C38.9913 51.9336 39.6866 52.2215 40.1992 52.7341C40.7118 53.2467 40.9997 53.942 40.9997 54.6669V56.0335H43.733V54.6669C43.7284 54.0863 43.6316 53.5101 43.446 52.9599C45.9537 53.9891 48.0992 55.74 49.6102 57.9904C51.1212 60.2409 51.9296 62.8895 51.933 65.6001V72.4334C51.9308 74.245 51.2102 75.9818 49.9291 77.2629C48.6481 78.5439 46.9113 79.2645 45.0997 79.2667ZM72.4328 69.7001C72.4306 71.5117 71.71 73.2485 70.429 74.5295C69.148 75.8106 67.4112 76.5312 65.5995 76.5334H53.7301C54.3451 75.254 54.6651 73.8529 54.6663 72.4334V65.6001C54.6649 63.2615 54.1619 60.9503 53.1913 58.8226C52.2207 56.6949 50.805 54.8001 49.0398 53.266C50.3345 51.9595 51.8802 50.9284 53.5839 50.2348C53.4002 50.7825 53.3042 51.3559 53.2996 51.9336V53.3002H56.0329V51.9336C56.0329 51.2086 56.3209 50.5134 56.8335 50.0008C57.3461 49.4882 58.0413 49.2002 58.7663 49.2002C59.4912 49.2002 60.1864 49.4882 60.699 50.0008C61.2116 50.5134 61.4996 51.2086 61.4996 51.9336V53.3002H64.2329V51.9336C64.2283 51.353 64.1314 50.7768 63.9459 50.2266C66.4536 51.2558 68.599 53.0067 70.11 55.2571C71.621 57.5076 72.4295 60.1562 72.4328 62.8668V69.7001Z" fill="#057AFF"/>
<path d="M5.46662 35.5338C6.54782 35.5338 7.60473 35.2132 8.50372 34.6125C9.4027 34.0119 10.1034 33.1581 10.5171 32.1592C10.9309 31.1603 11.0391 30.0611 10.8282 29.0007C10.6173 27.9403 10.0966 26.9662 9.33211 26.2017C8.56759 25.4372 7.59353 24.9166 6.53311 24.7056C5.47269 24.4947 4.37353 24.603 3.37464 25.0167C2.37574 25.4305 1.52197 26.1311 0.921292 27.0301C0.320612 27.9291 0 28.986 0 30.0672C0 31.5171 0.575946 32.9075 1.60114 33.9327C2.62633 34.9579 4.01679 35.5338 5.46662 35.5338ZM5.46662 27.3339C6.00722 27.3339 6.53568 27.4942 6.98517 27.7945C7.43466 28.0949 7.785 28.5218 7.99188 29.0212C8.19875 29.5207 8.25288 30.0702 8.14742 30.6005C8.04195 31.1307 7.78163 31.6177 7.39937 32C7.01711 32.3822 6.53008 32.6425 5.99987 32.748C5.46966 32.8535 4.92008 32.7993 4.42063 32.5925C3.92118 32.3856 3.4943 32.0353 3.19396 31.5858C2.89362 31.1363 2.73331 30.6078 2.73331 30.0672C2.73331 29.3423 3.02128 28.6471 3.53388 28.1345C4.04648 27.6219 4.7417 27.3339 5.46662 27.3339Z" fill="#057AFF"/>
<path d="M68.3328 27.3336C69.414 27.3336 70.4709 27.013 71.3699 26.4123C72.2689 25.8117 72.9696 24.9579 73.3833 23.959C73.7971 22.9601 73.9054 21.861 73.6944 20.8005C73.4835 19.7401 72.9628 18.7661 72.1983 18.0015C71.4338 17.237 70.4597 16.7164 69.3993 16.5054C68.3389 16.2945 67.2397 16.4028 66.2408 16.8165C65.242 17.2303 64.3882 17.9309 63.7875 18.8299C63.1868 19.7289 62.8662 20.7858 62.8662 21.867C62.8662 23.3169 63.4422 24.7073 64.4673 25.7325C65.4925 26.7577 66.883 27.3336 68.3328 27.3336ZM68.3328 19.1337C68.8734 19.1337 69.4019 19.294 69.8514 19.5944C70.3009 19.8947 70.6512 20.3216 70.8581 20.821C71.065 21.3205 71.1191 21.87 71.0136 22.4003C70.9082 22.9305 70.6478 23.4175 70.2656 23.7998C69.8833 24.182 69.3963 24.4423 68.8661 24.5478C68.3359 24.6533 67.7863 24.5991 67.2868 24.3923C66.7874 24.1854 66.3605 23.8351 66.0602 23.3856C65.7598 22.9361 65.5995 22.4076 65.5995 21.867C65.5995 21.1421 65.8875 20.4469 66.4001 19.9343C66.9127 19.4217 67.6079 19.1337 68.3328 19.1337Z" fill="#057AFF"/>
<path d="M4.10001 16.4004H1.3667V21.867H4.10001V16.4004Z" fill="#057AFF"/>
<path d="M4.10001 10.9338H1.3667V13.6671H4.10001V10.9338Z" fill="#057AFF"/>
<path d="M9.56656 13.6672H6.83325V19.1339H9.56656V13.6672Z" fill="#057AFF"/>
<path d="M9.56656 8.20068H6.83325V10.934H9.56656V8.20068Z" fill="#057AFF"/>
<path d="M9.56656 2.73389H6.83325V5.4672H9.56656V2.73389Z" fill="#057AFF"/>
<path d="M66.9662 8.20068H64.2329V13.6673H66.9662V8.20068Z" fill="#057AFF"/>
<path d="M66.9662 2.73389H64.2329V5.4672H66.9662V2.73389Z" fill="#057AFF"/>
<path d="M72.4328 5.46729H69.6995V10.9339H72.4328V5.46729Z" fill="#057AFF"/>
<path d="M72.4328 0.000488281H69.6995V2.7338H72.4328V0.000488281Z" fill="#057AFF"/>
</svg>
