<svg width="82" height="83" viewBox="0 0 82 83" fill="none" xmlns="http://www.w3.org/2000/svg">
<path d="M67.9123 46.0458L63.6109 37.4658C61.0392 38.9223 58.5129 40.3334 56.0095 41.8127C55.1674 42.3361 54.4163 42.4044 53.4605 42.0858C47.9301 40.3334 42.3769 38.6492 36.8465 36.9651C36.5458 36.8877 36.2667 36.7431 36.0301 36.542C35.7935 36.3409 35.6058 36.0887 35.481 35.8044C34.5024 33.8016 33.501 31.8443 32.4996 29.8643C32.3858 29.614 32.2492 29.3636 32.0899 29.0677L23.6009 32.254C23.6919 32.5498 23.7602 32.8002 23.8285 33.0733C24.9209 36.3051 26.0133 39.514 27.0375 42.7686C27.208 43.3842 27.2314 44.0312 27.1058 44.6575C26.8326 46.0231 26.423 47.3431 26.0588 48.7314L23.4416 48.0486C23.7374 46.8424 24.0788 45.7044 24.3064 44.5437C24.4169 44.0624 24.4012 43.5607 24.2609 43.0872C22.1443 36.6009 19.9595 30.1374 17.8202 23.6739C16.3408 19.2132 17.0919 15.2076 20.2781 11.7028C20.4829 11.4752 20.7333 11.2931 21.0064 11.02C21.5981 11.7255 22.1671 12.34 22.7361 13C22.2025 13.5949 21.7011 14.2179 21.234 14.8662C20.0505 16.7097 19.436 18.758 19.9822 20.8973C20.7105 23.8332 21.7119 26.7008 22.645 29.6822L30.9975 26.5643L29.8823 23.7877C29.5409 22.9456 29.1996 22.1035 28.8809 21.2387C28.5623 20.3739 28.8582 19.327 30.0644 19.1449L36.7327 18.1208L37.5748 17.9614C36.8465 16.8235 37.4155 16.118 38.2803 15.4352C40.01 14.0242 41.7169 12.5676 43.6287 10.9517H42.5362C38.3941 10.9517 34.2748 10.9745 30.1554 10.9517C28.2209 10.929 26.2864 10.9517 24.443 11.9531L23.1912 9.54068C24.811 8.66041 26.6279 8.20619 28.4713 8.22067H42.6045C42.559 7.19652 42.3769 6.24065 42.4907 5.28478C42.9459 1.55234 46.7466 -0.951134 50.2742 0.346119C53.8018 1.64337 57.8529 3.32752 61.5398 5.03444C64.8399 6.55928 66.3192 10.4055 65.1585 13.9331C64.9309 14.5931 65.0902 14.8662 65.5909 15.2304C68.762 17.6428 71.9179 20.078 75.0586 22.536C83.0469 28.7491 82.2504 40.7203 73.511 45.841L70.2337 47.7527C74.2393 49.0728 76.06 51.7355 75.0131 54.6714L72.5551 54.0114C72.5601 53.776 72.5525 53.5405 72.5324 53.3059C72.5096 51.8038 71.3944 50.6886 69.8923 50.5748C67.7302 50.3928 65.7957 50.6659 64.1116 52.2817C62.8371 53.5335 60.9936 54.2618 59.9922 55.6501C58.9909 57.0383 58.7633 58.9273 58.1943 60.5887C56.8515 64.5943 55.5315 68.6226 54.1888 72.6281C54.075 72.9923 53.9612 73.3336 53.8474 73.7433H61.4716V58.0625C61.4716 56.4011 61.8357 56.0369 63.5426 56.0369H74.4669C76.1055 56.0369 76.4696 56.4011 76.4924 58.017V58.768H78.5862C79.0285 58.768 79.4665 58.8551 79.8752 59.0244C80.2839 59.1937 80.6552 59.4418 80.9679 59.7546C81.2807 60.0673 81.5288 60.4387 81.6981 60.8473C81.8674 61.256 81.9545 61.694 81.9545 62.1363C81.9773 64.0025 81.9773 65.846 81.9545 67.6895C81.9575 68.1326 81.8725 68.572 81.7043 68.982C81.5361 69.3921 81.2881 69.7646 80.9747 70.078C80.6613 70.3913 80.2888 70.6393 79.8788 70.8075C79.4687 70.9757 79.0294 71.0608 78.5862 71.0578C77.9262 71.0805 77.2434 71.0578 76.5379 71.0578V73.8116C77.7441 73.8116 78.9503 73.7888 80.1566 73.8116C81.3628 73.8343 81.9545 74.2668 81.9545 75.6095V80.2068C81.9545 81.5496 81.4993 82.0048 80.1566 82.0048H2.04829C0.364141 82.0048 0 81.6406 0 79.9337V75.4275C0.0227588 74.3123 0.500694 73.8116 1.63863 73.8116C2.77658 73.8116 3.84624 73.8116 5.05246 73.8116C3.96003 69.715 2.89037 65.7322 1.82071 61.6129L4.43797 60.9073C4.96142 62.8874 5.46212 64.7763 5.98557 66.6426C6.50902 68.5088 7.00972 70.4888 7.51041 72.4233C7.80627 73.5157 8.19318 73.7888 9.33112 73.7888C16.796 73.8116 24.2381 73.8116 31.703 73.7888C33.0686 73.7888 33.6148 73.1288 33.2962 71.786C31.9761 66.0963 30.6334 60.3839 29.2906 54.6942C29.0403 53.6018 28.6306 53.3059 27.4927 53.3059H4.27866C2.91313 53.3059 2.54899 53.7838 2.91313 55.1266C3.27727 56.4694 3.45934 57.2659 3.77796 58.4039L1.11518 59.1321C0.751041 57.6073 0.250347 56.128 0.0455176 54.6259C-0.250347 52.4183 1.57036 50.5976 3.89176 50.5748H27.6975C29.8823 50.5976 31.4072 51.8038 31.9306 53.9431C33.0003 58.4949 34.0927 63.0467 35.1396 67.6212C35.2534 68.1902 35.481 68.3495 36.0272 68.3495H47.2928C48.7494 68.3495 49.159 68.7819 49.1818 70.2385V73.7206C49.269 73.7615 49.3606 73.792 49.4549 73.8116C50.9115 73.8571 50.9115 73.8571 51.3667 72.4688C53.3239 66.597 55.2584 60.7025 57.2612 54.8535C57.4953 54.2264 57.8967 53.6754 58.4219 53.2604C61.335 51.0073 64.2709 48.8452 67.2068 46.6376L67.9123 46.0458ZM58.6495 21.7622H58.8543C60.0378 18.9628 61.3123 16.1863 62.3364 13.3414C63.224 10.929 62.4047 8.92619 60.2426 7.53791C59.7441 7.2129 59.2188 6.93118 58.6722 6.69583L50.4108 3.28201C50.0204 3.11899 49.6169 2.98956 49.2046 2.89511C48.7565 2.78145 48.2891 2.76596 47.8344 2.84969C47.3798 2.93342 46.9486 3.1144 46.5704 3.38023C46.1922 3.64606 45.8758 3.99048 45.6431 4.3899C45.4103 4.78932 45.2666 5.23432 45.2218 5.69444C45.0397 7.28756 45.768 8.4255 47.6115 9.1993C50.1377 10.2917 52.7322 11.2704 55.2584 12.3628C57.7846 13.4552 58.1488 16.0725 55.8501 17.7794C53.5515 19.4863 51.7991 20.6242 49.7735 22.0353C49.1135 22.5132 48.4308 22.536 47.6797 22.2173L42.9004 20.2146L42.1721 19.987L41.5121 21.4891L43.6969 21.8532C43.9245 21.8987 44.2204 21.8987 44.3342 22.058C44.8349 22.627 45.2673 23.2642 45.768 23.9015C43.97 24.8801 42.2631 24.7663 40.5562 23.856C40.3286 24.2884 40.1466 24.6981 39.9417 25.1077C39.1679 26.7463 39.3728 27.4064 41.0342 28.2257L45.7225 30.4788C48.9315 32.0264 50.0694 31.6623 51.7308 28.5215L55.8046 20.8518C56.1005 20.3056 56.5101 19.7822 57.1246 20.0097C57.7391 20.2373 58.035 20.6697 58.4219 21.0566C58.8088 21.4435 58.5812 21.5118 58.6495 21.7622ZM63.7019 17.3925C62.8599 19.3497 62.0633 21.2387 61.2212 23.0822C60.9936 23.5829 61.0619 23.856 61.4488 24.2429C63.9826 26.6857 66.5089 29.1436 69.0275 31.6167C69.9606 32.5498 69.8696 33.3692 68.7772 34.143L65.9551 36.0319L70.2337 44.5665C71.0758 44.0886 71.8724 43.6562 72.6234 43.1782C78.8821 39.2182 79.7241 30.2057 74.1255 25.3808C70.8482 22.536 67.2523 20.078 63.7019 17.3925ZM79.1779 76.5882H2.79933V79.2282H79.1779V76.5882ZM73.7158 58.8363H64.2709V73.7661H73.7158V58.8363ZM54.1432 39.3775L54.3481 39.6051L65.7502 32.8457L59.7874 26.3822L54.1432 39.3775ZM31.9989 21.6029C32.1355 21.9215 32.2265 22.1946 32.3403 22.4449C33.9789 26.0408 35.6858 29.5912 37.2562 33.2099C37.7114 34.2568 38.3486 34.803 39.5321 34.8257C40.01 33.6878 40.5335 32.5271 41.0569 31.2754L39.6459 30.5926C36.9831 29.3181 36.141 27.0195 37.3017 24.3112L38.9403 20.5332L31.9989 21.6029ZM56.6695 25.6767L56.3736 25.6312C55.3722 27.4746 54.4163 29.3409 53.3922 31.1843C51.8674 33.9837 48.8632 34.9623 45.9728 33.6195L43.5376 32.4588L42.1266 35.7361L51.4804 38.6037C53.1646 34.7575 54.8032 31.025 56.3964 27.2698C56.6012 26.7919 56.6012 26.2229 56.6695 25.6767ZM41.3073 16.4594C41.3755 16.5504 41.3983 16.6187 41.4438 16.6414C43.6742 17.5745 45.9045 18.5304 48.1349 19.418C48.2786 19.4524 48.4279 19.4559 48.573 19.4285C48.7181 19.401 48.8558 19.3432 48.977 19.2587C50.0466 18.5532 51.0708 17.8021 52.1177 17.0739L54.7122 15.2531C54.637 15.1601 54.5442 15.0827 54.4391 15.0256L47.2245 11.9986C47.1234 11.9642 47.0159 11.9525 46.9097 11.9643C46.8035 11.9761 46.7012 12.0112 46.6101 12.0669L41.3073 16.4594ZM36.0955 71.1033V73.7433H46.3825V71.1033H36.0955ZM76.5152 68.3267H78.3586C78.9731 68.3495 79.2234 68.0308 79.2234 67.4391C79.2007 66.2557 79.2234 65.0722 79.2234 63.866C79.2007 61.2487 79.5648 61.4991 76.7883 61.5218C76.6954 61.5365 76.604 61.5593 76.5152 61.5901V68.3267Z" fill="#057AFF"/>
<path d="M13.6553 64.0023C13.6462 63.4975 13.7378 62.9959 13.9248 62.5268C14.1117 62.0578 14.3902 61.6307 14.7441 61.2705C15.0979 60.9103 15.5199 60.6243 15.9856 60.429C16.4512 60.2337 16.9511 60.1332 17.456 60.1333C18.6152 60.1392 19.7256 60.6008 20.5474 61.4183C21.3692 62.2359 21.8365 63.3438 21.8484 64.503C21.8485 65.007 21.7488 65.5061 21.5552 65.9714C21.3617 66.4368 21.078 66.8593 20.7205 67.2147C20.3631 67.57 19.9389 67.8512 19.4724 68.042C19.0059 68.2328 18.5062 68.3295 18.0022 68.3265C16.8551 68.3205 15.7563 67.8638 14.943 67.0548C14.1297 66.2458 13.6672 65.1494 13.6553 64.0023ZM19.1174 64.4575C19.0901 64.0461 18.9128 63.659 18.6192 63.3696C18.3256 63.0802 17.936 62.9085 17.5243 62.8871C17.3681 62.8762 17.2114 62.8997 17.0652 62.956C16.9191 63.0122 16.7871 63.0999 16.6786 63.2128C16.5701 63.3256 16.4876 63.461 16.4371 63.6092C16.3866 63.7574 16.3693 63.9149 16.3863 64.0706C16.4199 64.4794 16.6036 64.8613 16.9019 65.1428C17.2002 65.4243 17.5921 65.5855 18.0022 65.5954C18.1506 65.5954 18.2975 65.5659 18.4343 65.5084C18.5711 65.4509 18.6951 65.3667 18.7989 65.2608C18.9028 65.1548 18.9844 65.0292 19.0391 64.8912C19.0938 64.7533 19.1204 64.6058 19.1174 64.4575Z" fill="#057AFF"/>
<path d="M48.2715 17.6655C48.7039 16.7096 49.0908 15.7993 49.5004 14.8434L47.0197 13.751L45.7908 16.5731L48.2715 17.6655Z" fill="#EA0000"/>
<path d="M48.2715 17.6655L45.7908 16.5731L47.0197 13.751L49.5004 14.8434C49.0908 15.7993 48.7039 16.7096 48.2715 17.6655Z" fill="#057AFF"/>
</svg>
