<svg width="100" height="86" viewBox="0 0 100 86" fill="none" xmlns="http://www.w3.org/2000/svg">
<path d="M12.0128 77.8003L6.20671 64.2723L12.0128 77.8003ZM57.4723 69.4648C57.4723 69.4648 72.1632 55.4929 74.6788 59.7253C74.6788 59.7253 75.3951 60.2701 76.4204 64.2833C76.4204 64.2833 66.1526 71.1679 62.0229 75.5819C51.1498 87.2033 35.8362 83.4074 35.8362 83.4074C29.0818 83.5184 16.4772 71.8997 7.48422 80.4947L2 66.9172C2 66.9172 16.2526 57.6389 20.5867 56.9731C24.9191 56.3045 32.5328 59.1833 39.2304 62.9755C45.9297 66.7668 51.6524 64.1833 56.1856 68.036C60.7197 71.8887 45.5812 75.2976 42.4815 74.6556C39.3808 74.0118 36.7276 71.4614 33.8562 71.7255L57.4723 69.4648ZM25.2272 71.5659C27.6053 71.4247 29.345 71.5879 29.345 71.5879L25.2272 71.5659ZM58.7186 45.5039H52.5181V51.7053H47.6695V45.5039H41.469V40.6571H47.6695V34.4557H52.5181V40.6571H58.7186V45.5039ZM49.7733 28.5955C41.6643 28.5955 35.0924 35.1683 35.0924 43.2763C35.0924 51.3843 41.6643 57.9571 49.7733 57.9571C57.8822 57.9571 64.4541 51.3834 64.4541 43.2763C64.4541 35.1692 57.8822 28.5955 49.7733 28.5955Z" stroke="#057AFF" stroke-width="3" stroke-miterlimit="10" stroke-linecap="round" stroke-linejoin="round"/>
<path d="M87.5006 8.19974L93.3067 21.7278M42.0411 16.5352C42.0411 16.5352 27.3502 30.5071 24.8346 26.2748C24.8346 26.2748 24.1184 25.73 23.0931 21.7168C23.0931 21.7168 33.3609 14.8322 37.4905 10.4182C48.3636 -1.20322 63.6772 2.59263 63.6772 2.59263C70.4316 2.48166 83.0362 14.1003 92.0292 5.50532L97.5134 19.0829C97.5134 19.0829 83.2609 28.3611 78.9267 29.0269C74.5943 29.6955 66.9806 26.8168 60.2831 23.0246C53.5837 19.2333 47.861 21.8168 43.3278 17.964C38.7937 14.1113 53.9322 10.7025 57.032 11.3445C60.1327 11.9883 62.7858 14.5387 65.6572 14.2746L42.0411 16.5352ZM74.2862 14.4341C71.9082 14.5754 70.1684 14.4121 70.1684 14.4121L74.2862 14.4341Z" stroke="#057AFF" stroke-width="3" stroke-miterlimit="10" stroke-linecap="round" stroke-linejoin="round"/>
</svg>
