<svg width="82" height="82" viewBox="0 0 82 82" fill="none" xmlns="http://www.w3.org/2000/svg">
<path d="M77.8999 42.3667C77.4187 42.3709 76.942 42.4607 76.4923 42.6318C76.44 41.3218 76.0354 40.0501 75.321 38.9507C74.6067 37.8513 73.6091 36.9648 72.4333 36.3848C73.3106 35.3965 73.7966 34.1216 73.7999 32.8001V28.7001C73.7999 27.2502 73.224 25.8597 72.1988 24.8345C71.1736 23.8093 69.7831 23.2334 68.3333 23.2334C66.8834 23.2334 65.493 23.8093 64.4678 24.8345C63.4426 25.8597 62.8666 27.2502 62.8666 28.7001V32.8001C62.869 33.5763 63.0378 34.3431 63.3615 35.0487C63.6851 35.7542 64.1562 36.3823 64.743 36.8905C63.8128 37.5247 63.0393 38.3625 62.4812 39.3402C61.9231 40.318 61.595 41.41 61.5218 42.5334C61.505 42.7051 61.4977 42.8776 61.4999 43.05V43.7334H54.6666C54.1999 43.7382 53.7375 43.8237 53.2999 43.9862C53.2888 42.6872 52.9827 41.4077 52.4048 40.2443C51.7673 38.9643 50.8159 37.8668 49.6393 37.0543C48.4627 36.2417 47.0994 35.7405 45.6767 35.5976C46.1907 34.7548 46.4639 33.7872 46.4666 32.8001V28.7001C46.4666 27.2502 45.8907 25.8597 44.8655 24.8345C43.8403 23.8093 42.4498 23.2334 41 23.2334C39.5501 23.2334 38.1596 23.8093 37.1344 24.8345C36.1092 25.8597 35.5333 27.2502 35.5333 28.7001V32.8001C35.5377 33.7867 35.8123 34.7533 36.3273 35.5949C34.9046 35.7377 33.5412 36.2388 32.3646 37.0514C31.188 37.864 30.2366 38.9615 29.5992 40.2415C29.0192 41.4053 28.7116 42.6859 28.7 43.9862C28.2624 43.8237 27.8 43.7382 27.3333 43.7334H20.5V43.05C20.5026 42.8995 20.4972 42.749 20.4836 42.599C20.4133 41.4651 20.0861 40.3621 19.5266 39.3733C18.9671 38.3845 18.19 37.536 17.2542 36.8919C17.8418 36.3839 18.3137 35.7558 18.6379 35.0499C18.962 34.344 19.131 33.5768 19.1333 32.8001V28.7001C19.1333 27.2502 18.5574 25.8597 17.5322 24.8345C16.507 23.8093 15.1165 23.2334 13.6667 23.2334C12.2168 23.2334 10.8263 23.8093 9.80114 24.8345C8.77594 25.8597 8.19999 27.2502 8.19999 28.7001V32.8001C8.20362 34.1212 8.68962 35.3955 9.56666 36.3835C8.39101 36.9641 7.39357 37.8508 6.67928 38.9504C5.965 40.0499 5.56026 41.3217 5.50766 42.6318C5.05788 42.4607 4.58123 42.3709 4.1 42.3667C3.01261 42.3667 1.96976 42.7987 1.20086 43.5676C0.431963 44.3365 0 45.3793 0 46.4667V64.2334C0 65.3207 0.431963 66.3636 1.20086 67.1325C1.96976 67.9014 3.01261 68.3334 4.1 68.3334H8.19999V76.5333H4.1C3.73753 76.5333 3.38992 76.6773 3.13362 76.9336C2.87732 77.1899 2.73333 77.5376 2.73333 77.9V79.2667H16.4V77.9C16.4 77.5376 16.256 77.1899 15.9997 76.9336C15.7434 76.6773 15.3958 76.5333 15.0333 76.5333H10.9333V68.3334H17.7666C18.2333 68.3288 18.6956 68.2438 19.1333 68.0819V80.6333C19.1333 80.9958 19.2773 81.3434 19.5336 81.5997C19.7899 81.856 20.1375 82 20.5 82H30.0666C30.4291 82 30.7767 81.856 31.033 81.5997C31.2893 81.3434 31.4333 80.9958 31.4333 80.6333V77.9C31.4333 76.8126 31.0013 75.7698 30.2324 75.0009C29.4635 74.232 28.4207 73.8 27.3333 73.8V61.5C27.3311 59.6884 26.6105 57.9516 25.3295 56.6705C24.0484 55.3895 22.3116 54.6689 20.5 54.6667V51.9334H26.2181C26.0562 52.3711 25.9712 52.8334 25.9666 53.3C25.9666 54.3874 26.3986 55.4303 27.1675 56.1992C27.9364 56.9681 28.9793 57.4 30.0666 57.4H34.1666V80.6333C34.1666 80.9958 34.3106 81.3434 34.5669 81.5997C34.8232 81.856 35.1708 82 35.5333 82H46.4666C46.8291 82 47.1767 81.856 47.433 81.5997C47.6893 81.3434 47.8333 80.9958 47.8333 80.6333V57.4H51.9333C53.0207 57.4 54.0635 56.9681 54.8324 56.1992C55.6013 55.4303 56.0333 54.3874 56.0333 53.3C56.0288 52.8334 55.9437 52.3711 55.7818 51.9334H61.4999V54.6667C59.6883 54.6689 57.9515 55.3895 56.6704 56.6705C55.3894 57.9516 54.6688 59.6884 54.6666 61.5V73.8C53.5792 73.8 52.5364 74.232 51.7675 75.0009C50.9986 75.7698 50.5666 76.8126 50.5666 77.9V80.6333C50.5666 80.9958 50.7106 81.3434 50.9669 81.5997C51.2232 81.856 51.5708 82 51.9333 82H61.4999C61.8624 82 62.21 81.856 62.4663 81.5997C62.7226 81.3434 62.8666 80.9958 62.8666 80.6333V68.0819C63.3043 68.2438 63.7666 68.3288 64.2333 68.3334H71.0666V76.5333H66.9666C66.6041 76.5333 66.2565 76.6773 66.0002 76.9336C65.7439 77.1899 65.5999 77.5376 65.5999 77.9V79.2667H79.2666V77.9C79.2666 77.5376 79.1226 77.1899 78.8663 76.9336C78.61 76.6773 78.2624 76.5333 77.8999 76.5333H73.7999V68.3334H77.8999C78.9873 68.3334 80.0302 67.9014 80.7991 67.1325C81.568 66.3636 81.9999 65.3207 81.9999 64.2334V46.4667C81.9999 45.3793 81.568 44.3365 80.7991 43.5676C80.0302 42.7987 78.9873 42.3667 77.8999 42.3667ZM65.5999 28.7001C65.5999 27.9751 65.8879 27.2799 66.4005 26.7673C66.9131 26.2547 67.6083 25.9667 68.3333 25.9667C69.0582 25.9667 69.7534 26.2547 70.266 26.7673C70.7786 27.2799 71.0666 27.9751 71.0666 28.7001V32.8001C71.0666 33.525 70.7786 34.2202 70.266 34.7328C69.7534 35.2454 69.0582 35.5334 68.3333 35.5334C67.6083 35.5334 66.9131 35.2454 66.4005 34.7328C65.8879 34.2202 65.5999 33.525 65.5999 32.8001V28.7001ZM54.6666 46.4667H56.0333V49.2H53.2999V47.8334C53.2999 47.4709 53.4439 47.1233 53.7002 46.867C53.9565 46.6107 54.3042 46.4667 54.6666 46.4667ZM38.2666 28.7001C38.2666 27.9751 38.5546 27.2799 39.0672 26.7673C39.5798 26.2547 40.275 25.9667 41 25.9667C41.7249 25.9667 42.4201 26.2547 42.9327 26.7673C43.4453 27.2799 43.7333 27.9751 43.7333 28.7001V32.8001C43.7333 33.525 43.4453 34.2202 42.9327 34.7328C42.4201 35.2454 41.7249 35.5334 41 35.5334C40.275 35.5334 39.5798 35.2454 39.0672 34.7328C38.5546 34.2202 38.2666 33.525 38.2666 32.8001V28.7001ZM31.4333 44.0559C31.4333 42.5205 32.0432 41.048 33.1289 39.9623C34.2146 38.8766 35.6871 38.2667 37.2225 38.2667H44.7774C45.8533 38.263 46.9087 38.5607 47.8239 39.1262C48.7392 39.6917 49.4777 40.5023 49.9557 41.4661C50.3567 42.2706 50.5658 43.157 50.5666 44.0559V49.2H47.8333V45.1H45.1V49.2H36.9V45.1H34.1666V49.2H31.4333V44.0559ZM23.2333 46.4667V49.2H15.0333C14.6709 49.2 14.3232 49.0561 14.0669 48.7998C13.8106 48.5435 13.6667 48.1958 13.6667 47.8334V43.05C13.6667 42.5064 13.8826 41.9849 14.2671 41.6005C14.6515 41.216 15.173 41 15.7167 41C16.2603 41 16.7818 41.216 17.1662 41.6005C17.5507 41.9849 17.7666 42.5064 17.7666 43.05V45.1C17.7666 45.4625 17.9106 45.8101 18.1669 46.0664C18.4232 46.3227 18.7709 46.4667 19.1333 46.4667H23.2333ZM10.9333 28.7001C10.9333 27.9751 11.2213 27.2799 11.7339 26.7673C12.2465 26.2547 12.9417 25.9667 13.6667 25.9667C14.3916 25.9667 15.0868 26.2547 15.5994 26.7673C16.112 27.2799 16.4 27.9751 16.4 28.7001V32.8001C16.4 33.525 16.112 34.2202 15.5994 34.7328C15.0868 35.2454 14.3916 35.5334 13.6667 35.5334C12.9417 35.5334 12.2465 35.2454 11.7339 34.7328C11.2213 34.2202 10.9333 33.525 10.9333 32.8001V28.7001ZM17.7666 65.6H4.1C3.73753 65.6 3.38992 65.456 3.13362 65.1997C2.87732 64.9434 2.73333 64.5958 2.73333 64.2334V46.4667C2.73333 46.1042 2.87732 45.7566 3.13362 45.5003C3.38992 45.244 3.73753 45.1 4.1 45.1C4.46246 45.1 4.81007 45.244 5.06637 45.5003C5.32267 45.7566 5.46666 46.1042 5.46666 46.4667V61.5C5.46666 61.8625 5.61065 62.2101 5.86695 62.4664C6.12325 62.7227 6.47086 62.8667 6.83333 62.8667H17.7666C18.1291 62.8667 18.4767 63.0107 18.733 63.267C18.9893 63.5233 19.1333 63.8709 19.1333 64.2334C19.1333 64.5958 18.9893 64.9434 18.733 65.1997C18.4767 65.456 18.1291 65.6 17.7666 65.6ZM28.7 77.9V79.2667H21.8666V76.5333H27.3333C27.6958 76.5333 28.0434 76.6773 28.2997 76.9336C28.556 77.1899 28.7 77.5376 28.7 77.9ZM24.6 61.5V73.8H21.8666V64.2334C21.8666 63.146 21.4347 62.1031 20.6658 61.3342C19.8969 60.5653 18.854 60.1334 17.7666 60.1334H8.19999V57.4H20.5C21.5874 57.4 22.6302 57.832 23.3991 58.6009C24.168 59.3698 24.6 60.4126 24.6 61.5ZM17.7666 54.6667H8.19999V43.05C8.18959 42.3023 8.35709 41.5628 8.68868 40.8925C9.02028 40.2222 9.50646 39.6404 10.1071 39.1949C10.7078 38.7495 11.4058 38.4532 12.1435 38.3306C12.8812 38.2079 13.6375 38.2624 14.35 38.4895C13.366 38.7815 12.5022 39.3828 11.8868 40.2043C11.2714 41.0257 10.937 42.0236 10.9333 43.05V47.8334C10.9333 48.9208 11.3653 49.9636 12.1342 50.7325C12.9031 51.5014 13.9459 51.9334 15.0333 51.9334H17.7666V54.6667ZM25.9666 46.4667H27.3333C27.6958 46.4667 28.0434 46.6107 28.2997 46.867C28.556 47.1233 28.7 47.4709 28.7 47.8334V49.2H25.9666V46.4667ZM45.1 79.2667H36.9V57.4H45.1V79.2667ZM53.2999 53.3C53.2999 53.6625 53.156 54.0101 52.8997 54.2664C52.6434 54.5227 52.2957 54.6667 51.9333 54.6667H30.0666C29.7042 54.6667 29.3566 54.5227 29.1003 54.2664C28.844 54.0101 28.7 53.6625 28.7 53.3C28.7 52.9376 28.844 52.59 29.1003 52.3337C29.3566 52.0774 29.7042 51.9334 30.0666 51.9334H51.9333C52.2957 51.9334 52.6434 52.0774 52.8997 52.3337C53.156 52.59 53.2999 52.9376 53.2999 53.3ZM58.7666 46.4667H62.8666C63.2291 46.4667 63.5767 46.3227 63.833 46.0664C64.0893 45.8101 64.2333 45.4625 64.2333 45.1V43.05C64.2333 42.5064 64.4492 41.9849 64.8337 41.6005C65.2181 41.216 65.7396 41 66.2833 41C66.827 41 67.3484 41.216 67.7328 41.6005C68.1173 41.9849 68.3333 42.5064 68.3333 43.05V47.8334C68.3333 48.1958 68.1893 48.5435 67.933 48.7998C67.6767 49.0561 67.3291 49.2 66.9666 49.2H58.7666V46.4667ZM64.2333 51.9334H66.9666C68.054 51.9334 69.0968 51.5014 69.8657 50.7325C70.6346 49.9636 71.0666 48.9208 71.0666 47.8334V43.05C71.0633 42.0235 70.7291 41.0254 70.1137 40.2038C69.4982 39.3823 68.6342 38.7811 67.6499 38.4895C68.3621 38.273 69.1152 38.2263 69.8486 38.3533C70.5821 38.4804 71.2756 38.7775 71.8735 39.2209C72.4715 39.6643 72.9572 40.2416 73.2917 40.9066C73.6262 41.5715 73.8003 42.3057 73.7999 43.05V54.6667H64.2333V51.9334ZM57.3999 61.5C57.3999 60.4126 57.8319 59.3698 58.6008 58.6009C59.3697 57.832 60.4126 57.4 61.4999 57.4H73.7999V60.1334H64.2333C63.1459 60.1334 62.103 60.5653 61.3341 61.3342C60.5652 62.1031 60.1333 63.146 60.1333 64.2334V73.8H57.3999V61.5ZM60.1333 79.2667H53.2999V77.9C53.2999 77.5376 53.4439 77.1899 53.7002 76.9336C53.9565 76.6773 54.3042 76.5333 54.6666 76.5333H60.1333V79.2667ZM79.2666 64.2334C79.2666 64.5958 79.1226 64.9434 78.8663 65.1997C78.61 65.456 78.2624 65.6 77.8999 65.6H64.2333C63.8708 65.6 63.5232 65.456 63.2669 65.1997C63.0106 64.9434 62.8666 64.5958 62.8666 64.2334C62.8666 63.8709 63.0106 63.5233 63.2669 63.267C63.5232 63.0107 63.8708 62.8667 64.2333 62.8667H75.1666C75.5291 62.8667 75.8767 62.7227 76.133 62.4664C76.3893 62.2101 76.5333 61.8625 76.5333 61.5V46.4667C76.5333 46.1042 76.6772 45.7566 76.9335 45.5003C77.1898 45.244 77.5375 45.1 77.8999 45.1C78.2624 45.1 78.61 45.244 78.8663 45.5003C79.1226 45.7566 79.2666 46.1042 79.2666 46.4667V64.2334Z" fill="#057AFF"/>
<path d="M68.3333 82C68.6951 81.9947 69.0416 81.8531 69.3036 81.6036C69.4242 81.4707 69.5213 81.3182 69.5906 81.1526C69.6627 80.989 69.7 80.8121 69.7 80.6333C69.7 80.4545 69.6627 80.2776 69.5906 80.114C69.5213 79.9484 69.4242 79.7959 69.3036 79.663C69.0393 79.4191 68.6929 79.2837 68.3333 79.2837C67.9737 79.2837 67.6272 79.4191 67.3629 79.663C67.2394 79.7936 67.142 79.9467 67.0759 80.114C67.0039 80.2776 66.9667 80.4545 66.9667 80.6333C66.9667 80.8121 67.0039 80.989 67.0759 81.1526C67.1453 81.3182 67.2423 81.4707 67.3629 81.6036C67.6248 81.8534 67.9714 81.9949 68.3333 82Z" fill="#057AFF"/>
<path d="M76.8065 81.9726C76.8921 81.9575 76.975 81.9299 77.0525 81.8906C77.1395 81.8605 77.2222 81.8191 77.2985 81.7676L77.5035 81.6036C77.753 81.3416 77.8946 80.9951 77.8999 80.6333C77.8977 80.4547 77.8606 80.2783 77.7905 80.114C77.7212 79.9484 77.6241 79.7959 77.5035 79.663C77.2392 79.4191 76.8928 79.2837 76.5332 79.2837C76.1736 79.2837 75.8272 79.4191 75.5629 79.663C75.4423 79.7959 75.3452 79.9484 75.2759 80.114C75.1993 80.2761 75.1618 80.454 75.1665 80.6333C75.1647 80.8133 75.1988 80.9918 75.2668 81.1584C75.3349 81.3251 75.4355 81.4765 75.5627 81.6037C75.69 81.731 75.8414 81.8316 76.008 81.8996C76.1747 81.9677 76.3532 82.0018 76.5332 82C76.6249 81.9976 76.7162 81.9884 76.8065 81.9726Z" fill="#057AFF"/>
<path d="M13.1474 81.8906C13.2288 81.9322 13.3165 81.96 13.407 81.9726C13.4928 81.9885 13.5796 81.9977 13.6667 82C14.0285 81.9947 14.375 81.8531 14.637 81.6036C14.7606 81.473 14.858 81.3199 14.924 81.1526C14.9961 80.989 15.0333 80.8121 15.0333 80.6333C15.0333 80.4545 14.9961 80.2776 14.924 80.114C14.858 79.9467 14.7606 79.7936 14.637 79.663C14.3728 79.4191 14.0263 79.2837 13.6667 79.2837C13.3071 79.2837 12.9607 79.4191 12.6964 79.663C12.5728 79.7936 12.4754 79.9467 12.4094 80.114C12.3394 80.2783 12.3022 80.4547 12.3 80.6333C12.3047 80.9952 12.4463 81.342 12.6964 81.6036L12.9 81.7676C12.9768 81.8192 13.06 81.8605 13.1474 81.8906Z" fill="#057AFF"/>
<path d="M5.46658 82C5.82838 81.9947 6.17487 81.8531 6.43691 81.6036C6.55753 81.4707 6.65458 81.3182 6.72391 81.1526C6.79597 80.989 6.83318 80.8121 6.83318 80.6333C6.83318 80.4545 6.79597 80.2776 6.72391 80.114C6.65787 79.9467 6.56046 79.7936 6.43691 79.663C6.17262 79.4191 5.82619 79.2837 5.46658 79.2837C5.10697 79.2837 4.76054 79.4191 4.49625 79.663C4.37271 79.7936 4.27529 79.9467 4.20925 80.114C4.13711 80.2776 4.09985 80.4545 4.09985 80.6333C4.09985 80.8121 4.13711 80.989 4.20925 81.1526C4.27858 81.3182 4.37564 81.4707 4.49625 81.6036C4.75815 81.8534 5.10473 81.9949 5.46658 82Z" fill="#057AFF"/>
<path d="M28.7 6.8335H25.9667V9.56683H28.7V6.8335Z" fill="#057AFF"/>
<path d="M23.2333 6.8335H20.5V9.56683H23.2333V6.8335Z" fill="#057AFF"/>
<path d="M17.7667 6.8335H15.0333V9.56683H17.7667V6.8335Z" fill="#057AFF"/>
<path d="M13.0735 20.3634C13.3057 20.4753 13.5648 20.5193 13.8209 20.4902C14.077 20.4612 14.3196 20.3604 14.5208 20.1994L20.9797 15.0334H28.7C30.5123 15.0334 32.2504 14.3134 33.5319 13.0319C34.8134 11.7504 35.5333 10.0123 35.5333 8.20004C35.5333 6.38773 34.8134 4.64964 33.5319 3.36815C32.2504 2.08665 30.5123 1.36671 28.7 1.36671H15.0333C13.4644 1.36364 11.9423 1.90158 10.7236 2.88984C9.505 3.87811 8.66432 5.25629 8.34329 6.79209C8.02226 8.32789 8.24051 9.92741 8.96125 11.3211C9.682 12.7147 10.8612 13.8173 12.3 14.443V19.1334C12.3003 19.3904 12.373 19.6421 12.5098 19.8597C12.6466 20.0772 12.842 20.2518 13.0735 20.3634ZM10.9334 8.20004C10.9334 7.11265 11.3653 6.0698 12.1342 5.3009C12.9031 4.53201 13.946 4.10004 15.0333 4.10004H28.7C29.7874 4.10004 30.8302 4.53201 31.5991 5.3009C32.368 6.0698 32.8 7.11265 32.8 8.20004C32.8 9.28743 32.368 10.3303 31.5991 11.0992C30.8302 11.8681 29.7874 12.3 28.7 12.3H20.5C20.1896 12.2999 19.8883 12.4054 19.6458 12.5993L15.0333 16.2893V13.4726C15.0334 13.1699 14.9328 12.8757 14.7476 12.6363C14.5623 12.3968 14.3028 12.2257 14.0097 12.1497C13.1318 11.9253 12.3533 11.4156 11.7964 10.7007C11.2396 9.98581 10.936 9.1062 10.9334 8.20004Z" fill="#057AFF"/>
<path d="M56.0333 5.4668H53.2999V8.20013H56.0333V5.4668Z" fill="#057AFF"/>
<path d="M61.4999 5.4668H58.7666V8.20013H61.4999V5.4668Z" fill="#057AFF"/>
<path d="M42.3666 17.7666H39.6333V20.4999H42.3666V17.7666Z" fill="#057AFF"/>
<path d="M36.9 17.7666H34.1666V20.4999H36.9V17.7666Z" fill="#057AFF"/>
<path d="M47.8333 17.7666H45.1V20.4999H47.8333V17.7666Z" fill="#057AFF"/>
<path d="M66.9666 5.4668H64.2333V8.20013H66.9666V5.4668Z" fill="#057AFF"/>
<path d="M53.2999 13.6667H61.0202L67.479 18.834C67.6801 18.995 67.9225 19.0959 68.1783 19.125C68.4342 19.1542 68.6931 19.1105 68.9252 18.999C69.1573 18.8874 69.3532 18.7125 69.4902 18.4945C69.6273 18.2765 69.7 18.0242 69.6999 17.7667V13.0763C71.1387 12.4506 72.3179 11.348 73.0386 9.95437C73.7594 8.56072 73.9776 6.96119 73.6566 5.42539C73.3356 3.88959 72.4949 2.51141 71.2762 1.52315C70.0576 0.534878 68.5355 -0.00305441 66.9665 1.30464e-05H53.2999C51.4876 1.30464e-05 49.7495 0.719951 48.468 2.00145C47.1865 3.28295 46.4666 5.02103 46.4666 6.83334C46.4666 8.64565 47.1865 10.3837 48.468 11.6652C49.7495 12.9467 51.4876 13.6667 53.2999 13.6667ZM53.2999 2.73334H66.9665C67.9628 2.7317 68.9255 3.09386 69.6736 3.75181C70.4218 4.40976 70.904 5.31822 71.0297 6.30657C71.1554 7.29492 70.9159 8.29515 70.3562 9.11941C69.7965 9.94367 68.9552 10.5352 67.9902 10.783C67.6971 10.859 67.4376 11.0301 67.2523 11.2696C67.067 11.509 66.9665 11.8032 66.9665 12.1059V14.9226L62.354 11.2326C62.1116 11.0387 61.8103 10.9332 61.4999 10.9333H53.2999C52.2125 10.9333 51.1696 10.5014 50.4007 9.73248C49.6318 8.96358 49.1999 7.92073 49.1999 6.83334C49.1999 5.74595 49.6318 4.7031 50.4007 3.93421C51.1696 3.16531 52.2125 2.73334 53.2999 2.73334Z" fill="#057AFF"/>
</svg>
