<svg width="82" height="70" viewBox="0 0 82 70" fill="none" xmlns="http://www.w3.org/2000/svg">
<path d="M45.6576 56.0189H71.7476C72.9832 56.0189 74.1682 56.5097 75.0419 57.3834C75.9156 58.2571 76.4065 59.4422 76.4065 60.6778C76.4065 61.9134 75.9156 63.0984 75.0419 63.9721C74.1682 64.8459 72.9832 65.3367 71.7476 65.3367H18.6358V61.6096C18.6358 61.1153 18.4395 60.6413 18.09 60.2918C17.7405 59.9423 17.2665 59.746 16.7723 59.746C16.278 59.746 15.804 59.9423 15.4545 60.2918C15.105 60.6413 14.9087 61.1153 14.9087 61.6096V65.3367C14.9087 66.3252 15.3014 67.2732 16.0003 67.9722C16.6993 68.6712 17.6473 69.0638 18.6358 69.0638H71.7476C73.9717 69.0638 76.1047 68.1803 77.6774 66.6076C79.2501 65.0349 80.1336 62.9019 80.1336 60.6778C80.1336 58.4537 79.2501 56.3206 77.6774 54.7479C76.1047 53.1752 73.9717 52.2917 71.7476 52.2917H45.6576C44.422 52.2917 43.2369 51.8009 42.3632 50.9272C41.4895 50.0534 40.9987 48.8684 40.9987 47.6328C40.9987 46.3972 41.4895 45.2122 42.3632 44.3384C43.2369 43.4647 44.422 42.9739 45.6576 42.9739H71.7476C73.9702 42.969 76.1003 42.0838 77.672 40.5122C79.2436 38.9406 80.1287 36.8104 80.1336 34.5878V32.7242C80.1287 30.5016 79.2436 28.3715 77.672 26.7998C76.1003 25.2282 73.9702 24.3431 71.7476 24.3382H70.8158C70.8158 23.8439 70.6194 23.3699 70.2699 23.0204C69.9205 22.6709 69.4464 22.4746 68.9522 22.4746C68.458 22.4746 67.9839 22.6709 67.6345 23.0204C67.285 23.3699 67.0886 23.8439 67.0886 24.3382V26.2017C67.0886 26.696 67.285 27.17 67.6345 27.5195C67.9839 27.869 68.458 28.0653 68.9522 28.0653H71.7476C72.3594 28.0653 72.9652 28.1858 73.5304 28.42C74.0957 28.6541 74.6093 28.9973 75.0419 29.4299C75.4745 29.8625 75.8177 30.3761 76.0518 30.9413C76.286 31.5066 76.4065 32.1124 76.4065 32.7242V34.5878C76.4065 35.1996 76.286 35.8055 76.0518 36.3707C75.8177 36.936 75.4745 37.4495 75.0419 37.8822C74.6093 38.3148 74.0957 38.658 73.5304 38.8921C72.9652 39.1262 72.3594 39.2467 71.7476 39.2467H45.6576C43.4335 39.2467 41.3004 40.1303 39.7277 41.703C38.1551 43.2756 37.2715 45.4087 37.2715 47.6328C37.2715 49.8569 38.1551 51.9899 39.7277 53.5626C41.3004 55.1353 43.4335 56.0189 45.6576 56.0189Z" fill="#057AFF"/>
<path d="M68.9524 22.2957C69.4467 22.2957 69.9207 22.0994 70.2702 21.7499C70.6197 21.4004 70.816 20.9264 70.816 20.4321V15.9968L80.9725 10.9093C81.2635 10.7635 81.5113 10.5439 81.6911 10.2725C81.871 10.0012 81.9766 9.68741 81.9974 9.36252C82.015 9.03686 81.9468 8.71228 81.7996 8.42123C81.6525 8.13018 81.4315 7.88285 81.1588 7.70395L69.9774 0.249671C69.6941 0.0861085 69.3727 0 69.0456 0C68.7185 0 68.3971 0.0861085 68.1138 0.249671C67.8228 0.395501 67.575 0.615036 67.3951 0.886415C67.2153 1.15779 67.1097 1.47155 67.0889 1.79643V20.4321C67.0889 20.9264 67.2852 21.4004 67.6347 21.7499C67.9842 22.0994 68.4582 22.2957 68.9524 22.2957ZM70.816 5.28131L76.4067 9.00845L70.816 11.8038V5.28131Z" fill="#057AFF"/>
<path d="M16.7721 57.8824C20.0893 57.8824 23.3321 56.8987 26.0902 55.0558C28.8484 53.2128 30.9981 50.5934 32.2675 47.5287C33.537 44.464 33.8691 41.0917 33.222 37.8382C32.5748 34.5847 30.9774 31.5962 28.6318 29.2506C26.2862 26.905 23.2977 25.3076 20.0442 24.6604C16.7907 24.0133 13.4184 24.3454 10.3537 25.6148C7.289 26.8843 4.66956 29.034 2.82661 31.7922C0.983667 34.5503 0 37.7931 0 41.1103C0 45.5585 1.76706 49.8246 4.91244 52.9699C8.05782 56.1153 12.3239 57.8824 16.7721 57.8824ZM11.1814 52.888V52.2917C11.1814 50.8089 11.7704 49.3869 12.8189 48.3385C13.8674 47.29 15.2894 46.701 16.7721 46.701C18.2549 46.701 19.6769 47.29 20.7254 48.3385C21.7738 49.3869 22.3628 50.8089 22.3628 52.2917V52.888C20.6156 53.7168 18.706 54.1468 16.7721 54.1468C14.8383 54.1468 12.9286 53.7168 11.1814 52.888ZM13.9768 40.1785C13.9768 39.6256 14.1407 39.0852 14.4479 38.6255C14.755 38.1658 15.1916 37.8075 15.7024 37.5959C16.2132 37.3843 16.7752 37.329 17.3175 37.4368C17.8597 37.5447 18.3578 37.8109 18.7487 38.2019C19.1397 38.5928 19.4059 39.0909 19.5138 39.6331C19.6216 40.1754 19.5663 40.7374 19.3547 41.2482C19.1431 41.759 18.7848 42.1956 18.3251 42.5027C17.8654 42.8099 17.325 42.9738 16.7721 42.9738C16.0308 42.9738 15.3197 42.6793 14.7955 42.1551C14.2713 41.6309 13.9768 40.9199 13.9768 40.1785ZM16.7721 28.0653C19.3637 28.0649 21.8966 28.8364 24.0479 30.2815C26.1992 31.7265 27.8713 33.7796 28.851 36.1788C29.8307 38.5781 30.0735 41.2148 29.5486 43.7526C29.0237 46.2904 27.7547 48.6144 25.9036 50.4281C25.6438 49.1951 25.1366 48.0276 24.4127 46.9962C23.6888 45.9647 22.7632 45.0909 21.6919 44.4274C22.721 43.258 23.2905 41.7548 23.2946 40.1971C23.2946 38.4672 22.6074 36.8082 21.3842 35.585C20.161 34.3618 18.502 33.6746 16.7721 33.6746C15.0423 33.6746 13.3832 34.3618 12.16 35.585C10.9368 36.8082 10.2496 38.4672 10.2496 40.1971C10.2538 41.7548 10.8233 43.258 11.8523 44.4274C10.781 45.0909 9.85542 45.9647 9.13151 46.9962C8.40761 48.0276 7.90042 49.1951 7.64063 50.4281C5.78952 48.6144 4.52058 46.2904 3.99565 43.7526C3.47072 41.2148 3.71358 38.5781 4.69327 36.1788C5.67296 33.7796 7.34508 31.7265 9.49635 30.2815C11.6476 28.8364 14.1806 28.0649 16.7721 28.0653Z" fill="#057AFF"/>
</svg>
